<svg width="31" height="31" viewBox="0 0 31 31" fill="none" xmlns="http://www.w3.org/2000/svg">
<path d="M11.8057 3.38062C6.98798 3.38062 3.05566 7.31293 3.05566 12.1306C3.05566 16.9483 6.98798 20.8806 11.8057 20.8806C13.9907 20.8806 15.9869 20.0656 17.5234 18.7322L18.0557 19.2644V20.8806L25.0381 27.863C25.7281 28.553 26.8481 28.553 27.5381 27.863C28.2281 27.173 28.2281 26.053 27.5381 25.363L20.5557 18.3806H18.9395L18.4072 17.8484C19.7407 16.3119 20.5557 14.3156 20.5557 12.1306C20.5557 7.31293 16.6233 3.38062 11.8057 3.38062ZM11.8057 5.88061C15.2722 5.88061 18.0557 8.66403 18.0557 12.1306C18.0557 15.5972 15.2722 18.3806 11.8057 18.3806C8.33908 18.3806 5.55566 15.5972 5.55566 12.1306C5.55566 8.66403 8.33908 5.88061 11.8057 5.88061Z" fill="#012C5F"/>
</svg>

