<svg width="200" height="200" viewBox="0 0 200 200" fill="none" xmlns="http://www.w3.org/2000/svg">
<mask id="mask0_109_1115" style="mask-type:luminance" maskUnits="userSpaceOnUse" x="10" y="66" width="180" height="109">
<path d="M189.013 66.6667H10.6666V174.667H189.013V66.6667Z" fill="white"/>
</mask>
<g mask="url(#mask0_109_1115)">
<path d="M168.173 97.1265C168.745 96.1155 169.044 94.9726 169.04 93.8104C169.04 90.9623 166.573 90.0797 164.573 90.0797C160.187 90.0797 156.907 89.9595 156.24 91.4169C154.907 94.3987 157.36 107.944 157.28 108.118L167.12 106.219" fill="#ECECEC"/>
<path d="M168.173 97.1265C168.745 96.1154 169.044 94.9725 169.04 93.8104C169.04 90.9623 166.573 90.0797 164.573 90.0797C160.187 90.0797 155.333 90.5425 154.667 92C153.333 94.9818 157.36 107.944 157.28 108.118L167.12 106.219" stroke="#001F3F" stroke-width="2" stroke-linecap="round" stroke-linejoin="round"/>
<path d="M36.4533 128.041H35.68C30.8933 128.041 27 139.487 27 151.561C27 163.636 30.8933 173.449 35.68 173.449H44.4933C48.4933 173.449 53.4132 165.427 54.3865 155.84C54.5465 154.141 42.9067 155.707 42.9067 153.875C42.96 141.68 41.28 128.041 36.4533 128.041Z" fill="#DEDEDE"/>
<path d="M123.133 127.68H122.333C117.387 127.68 113.36 139.34 113.36 151.641C113.36 163.943 117.36 173.944 122.333 173.944H131.44C135.653 173.944 139.133 166.751 140.147 157.043C140.32 155.319 130.173 157.043 130.173 155.265C130.173 142.883 128.093 127.68 123.133 127.68Z" fill="#DEDEDE"/>
<path d="M128.293 149.435C128.293 161.336 125.013 170.976 120.853 170.976C116.693 170.976 113.413 161.336 113.413 149.435C113.413 137.535 116.707 126.196 120.853 126.196C125 126.196 128.293 137.535 128.293 149.435Z" fill="#ECECEC"/>
<path d="M114.386 159.611C115.72 167.633 118.853 173.276 122.386 173.276M141.413 156.121C140.573 165.961 137.08 173.329 132.933 173.329H122.52C119.547 173.329 116.96 169.639 115.4 163.969" stroke="#001F3F" stroke-width="2" stroke-linecap="round" stroke-linejoin="round"/>
<path opacity="0.07" d="M121.48 163.649C123.72 163.649 125.48 158.3 125.48 151.615C125.48 144.929 123.667 139.58 121.48 139.58C119.293 139.58 117.413 144.929 117.413 151.615C117.413 158.3 119.227 163.649 121.48 163.649Z" fill="#001F3F"/>
<path opacity="0.06" d="M113.36 163.501H139.44L140.147 156.215L114.08 153.045L113.36 163.501Z" fill="#001F3F"/>
<path d="M127.893 154.449C127.507 160.6 125.973 165.775 123.893 168.583" stroke="#001F3F" stroke-width="2" stroke-linecap="round" stroke-linejoin="round"/>
<path d="M156.533 128.041H155.773C150.987 128.041 147.093 139.487 147.093 151.561C147.093 163.636 150.987 173.449 155.773 173.449H164.573C168.573 173.449 173.573 165.333 174.547 155.813C174.72 154.115 163.36 156.869 163.36 155.117C163.307 142.909 161.333 128.041 156.533 128.041Z" fill="#DEDEDE"/>
<path d="M161.373 149.556C161.373 161.723 158.4 171.591 154.613 171.591C150.827 171.591 147.867 161.723 147.867 149.556C147.867 137.388 150.84 125.781 154.613 125.781C158.387 125.781 161.373 137.401 161.373 149.556Z" fill="#ECECEC"/>
<path d="M155.773 127.867C150.987 127.867 147.093 139.313 147.093 151.387C147.093 163.461 150.987 173.276 155.773 173.276H166.2C169.173 173.276 171.733 169.585 173.307 163.916" stroke="#001F3F" stroke-width="2" stroke-linecap="round" stroke-linejoin="round"/>
<path opacity="0.07" d="M154.813 163.649C157.053 163.649 158.813 158.3 158.813 151.615C158.813 144.929 156.987 139.58 154.813 139.58C152.64 139.58 150.747 144.929 150.747 151.615C150.747 158.3 152.573 163.649 154.813 163.649Z" fill="#001F3F"/>
<path opacity="0.06" d="M148.76 163.956H171.613L174.28 154.008H148.507L148.76 163.956Z" fill="#001F3F"/>
<path d="M160.747 158.715C160.339 162.236 159.12 165.615 157.187 168.583" stroke="#001F3F" stroke-width="2" stroke-linecap="round" stroke-linejoin="round"/>
<path d="M27.2265 138.444C23.6265 136.384 24.8932 116.14 27.2265 109.214C28.2398 106.232 29.2933 105.604 34.4533 98.8781C36.04 94.3987 40.56 74.9969 47.96 71.7879C61.9333 65.8108 138.453 67.4689 142.36 72.3227L159.92 98.049C159.92 98.049 169.04 102.274 172.147 104.307C172.533 108.786 178.107 108.185 180.667 121.382C182.48 130.742 180.813 143.565 179.693 150.264C179.483 151.525 178.829 152.668 177.852 153.488C176.873 154.307 175.635 154.748 174.36 154.731H40.64" fill="#FCFCFC"/>
<path opacity="0.05" d="M27.6266 109.923L60.6934 113.72C65.5066 114.228 70.4134 117.879 83.3601 127.158C87.1599 129.833 88.1866 133.456 128 134.392C141.328 134.804 154.663 133.859 167.8 131.571C169.931 131.162 171.877 130.085 173.36 128.496C178.693 122.906 181.173 125.006 181.173 125.006L180.733 144.755C180.733 144.755 180.733 151.08 177.2 152.604C173.667 154.128 164.693 154.957 164.693 154.957L35.3601 154.837C35.3601 154.837 26.1466 141.465 26.1466 125.206C26.1466 108.947 27.6266 109.923 27.6266 109.923Z" fill="#001F3F"/>
<path d="M173.733 115.632C169.813 116.822 163.747 117.531 161.387 118.748C159.013 120.431 156.889 122.443 155.08 124.725C152.573 127.613 128.693 129.311 128.693 129.311C128.693 129.311 100.293 128.415 96.6934 124.07C95.5266 122.494 94.0466 121.178 92.3468 120.205C88.6268 118.093 80.5734 118.32 76.3468 116.194C69.7734 113.774 70.12 106.206 70.12 106.206C70.12 106.206 86.0533 107.944 91.1066 108.278C91.1066 108.278 152.747 110.404 165.187 105.938C171.147 104.293 171.853 104.053 171.853 104.053L175.773 111.34L176.293 112.477L173.733 115.632Z" fill="#ECECEC"/>
<path d="M64.56 69.2072L60.4133 103.531L33.48 99.1723C33.48 99.1723 41.8666 74.2348 47.96 71.828C54.0533 69.4212 64.56 69.2072 64.56 69.2072Z" fill="white"/>
<path opacity="0.06" d="M39.4133 81.5623L45.84 102.956H53.6267L45.8133 74.4755L39.4133 81.5623Z" fill="#001F3F"/>
<path opacity="0.06" d="M49.04 70.7449L59.2266 101.78L62.7067 77.9387L64.2266 69.9828L49.04 70.7449Z" fill="#001F3F"/>
<path d="M94.8534 120.807C91.1334 118.708 80.68 118.373 76.4266 116.341C69.8666 113.921 70.2001 106.353 70.2001 106.353C70.2001 106.353 86.2001 108.078 91.1868 108.425" fill="white"/>
<path d="M159.053 107.757C165.987 106.259 171.333 104.775 171.333 104.775L172.347 107.89L176.44 112.236L173.773 115.565C169.853 116.756 163.787 117.451 161.44 118.681C160.341 119.345 159.337 120.155 158.453 121.088" fill="white"/>
<path d="M100.587 114.777L102.013 121.355" stroke="#DEDEDE" stroke-width="2" stroke-linecap="round" stroke-linejoin="round"/>
<path d="M109.347 114.041L110.16 123.963" stroke="#DEDEDE" stroke-width="2" stroke-linecap="round" stroke-linejoin="round"/>
<path d="M117.627 114.362L118.413 124.377" stroke="#DEDEDE" stroke-width="2" stroke-linecap="round" stroke-linejoin="round"/>
<path d="M152.387 115.178L151.493 121.543" stroke="#DEDEDE" stroke-width="2" stroke-linecap="round" stroke-linejoin="round"/>
<path d="M144.573 114.456L143.427 123.816" stroke="#DEDEDE" stroke-width="2" stroke-linecap="round" stroke-linejoin="round"/>
<path d="M135.987 114.202L135.267 124.471" stroke="#DEDEDE" stroke-width="2" stroke-linecap="round" stroke-linejoin="round"/>
<path d="M126.96 113.867L127.213 124.832" stroke="#DEDEDE" stroke-width="2" stroke-linecap="round" stroke-linejoin="round"/>
<path opacity="0.06" d="M70.1067 109.615C70.1067 109.615 103.44 117.317 127.613 116.809C166.093 117.05 172.84 109.147 172.84 109.147L172.24 105.764C172.24 105.764 142.48 110.605 127.12 110.11C111.76 109.615 70.2002 106.326 70.2002 106.326L70.1067 109.615Z" fill="#001F3F"/>
<path d="M86.76 154.035L93.24 143.752C94.0939 142.217 95.3251 140.928 96.8164 140.007C98.3077 139.084 100.01 138.56 101.76 138.484H156.827C158.637 138.528 160.4 139.071 161.924 140.051C163.448 141.032 164.673 142.415 165.467 144.047L171.093 154.035" fill="#E6E6E6"/>
<path d="M171.08 154.035L165.453 144.047C164.659 142.412 163.431 141.029 161.904 140.048C160.379 139.067 158.612 138.525 156.8 138.484H101.747C99.9963 138.56 98.2944 139.084 96.8031 140.007C95.3118 140.928 94.0806 142.217 93.2267 143.752L88.9333 150.652L99.2267 144.863H158.76" fill="#E6E6E6"/>
<path d="M40.92 150.384C40.92 162.097 37.9467 171.605 34.2533 171.605C30.56 171.605 27.5867 162.097 27.5867 150.384C27.5867 138.671 30.56 127.479 34.2533 127.479C37.9467 127.479 40.92 138.644 40.92 150.384Z" fill="#ECECEC"/>
<path d="M35.52 129.097C30.72 129.097 26.84 140.236 26.84 151.989C26.84 163.743 30.72 173.276 35.52 173.276H45.9333C48.9066 173.276 51.4798 169.692 53.0532 164.184" stroke="#001F3F" stroke-width="2" stroke-linecap="round" stroke-linejoin="round"/>
<path d="M54.5067 155.733C53.72 165.735 50.2 173.276 46.0133 173.276H40.12" stroke="#001F3F" stroke-width="2" stroke-linecap="round" stroke-linejoin="round"/>
<path d="M174.787 154.703C174.147 165.16 170.547 173.276 166.2 173.276H164.04" stroke="#001F3F" stroke-width="2" stroke-linecap="round" stroke-linejoin="round"/>
<path opacity="0.07" d="M34.5465 163.649C36.7865 163.649 38.5465 158.3 38.5465 151.615C38.5465 144.929 36.7198 139.58 34.5465 139.58C32.3732 139.58 30.5465 144.929 30.5465 151.615C30.5465 158.3 32.2932 163.649 34.5465 163.649Z" fill="#001F3F"/>
<path opacity="0.06" d="M40.4399 163.501H52.6666L53.8399 155.292L41.9999 154.543L40.4399 163.501Z" fill="#001F3F"/>
<path d="M67.32 127.773H66.5465C61.7465 127.773 59.4133 139.367 59.4133 151.441C59.4133 163.515 63.32 173.316 68.1067 173.316H76.9067C80.9067 173.316 84.3467 166.256 85.32 156.736C85.4933 155.037 75.0401 156.736 75.0401 154.944C75.0401 142.816 72.1067 127.773 67.32 127.773Z" fill="#ECECEC"/>
<path d="M77.84 173.944H68.7198L75.9066 154.543C75.9066 156.428 86.7466 154.636 86.5733 156.428C85.6266 166.484 82.0533 173.944 77.84 173.944Z" fill="#DEDEDE"/>
<path d="M68.0666 128.897C63.2666 128.897 59.3734 140.088 59.3734 151.883C59.3734 163.676 63.2666 173.276 68.0666 173.276H78.4799M86.6934 159.651C85.3601 167.673 82.2266 173.329 78.5866 173.329H68.1733" stroke="#001F3F" stroke-width="2" stroke-linecap="round" stroke-linejoin="round"/>
<path opacity="0.07" d="M67.1466 163.649C69.3866 163.649 71.1466 158.3 71.1466 151.615C71.1466 144.929 69.3333 139.58 67.1466 139.58C64.96 139.58 63.08 144.929 63.08 151.615C63.08 158.3 64.8933 163.649 67.1466 163.649Z" fill="#001F3F"/>
<path opacity="0.06" d="M73.2666 163.956H83.9333L84.5866 156.696L74.3999 154.784L73.2666 163.956Z" fill="#001F3F"/>
<path d="M12 173.303H187.68" stroke="#001F3F" stroke-width="2" stroke-linecap="round" stroke-linejoin="round"/>
<path d="M173.627 135.221C173.813 134.539 174.188 133.923 174.707 133.443C175.224 132.97 175.868 132.659 176.56 132.547C177.252 132.428 177.964 132.506 178.613 132.774C179.26 133.063 179.813 133.527 180.213 134.112C180.616 134.697 180.843 135.387 180.867 136.097C180.889 136.809 180.709 137.512 180.347 138.123C179.987 138.729 179.463 139.22 178.833 139.537C178.205 139.855 177.5 139.985 176.8 139.915" fill="#E6E6E6"/>
<path d="M158.267 122.692C159.133 121.768 160.136 120.984 161.24 120.366C163.587 119.136 170.267 118.574 174.227 115.325" stroke="#001F3F" stroke-width="2" stroke-linecap="round" stroke-linejoin="round"/>
<path d="M94.1067 120.914C95.7455 121.626 97.187 122.728 98.3067 124.123C101.84 128.469 110.813 129.03 128.44 129.017C144.28 129.017 152.64 129.017 155.107 126.115C156.107 124.966 157.2 123.762 158.24 122.719" stroke="#001F3F" stroke-width="2" stroke-linecap="round" stroke-linejoin="round"/>
<path d="M96.0268 122.024C91.5335 119.35 83.5068 121.048 76.7068 118.226C75.4076 117.66 74.2481 116.814 73.3105 115.749C72.3728 114.684 71.6796 113.425 71.28 112.062C70.4933 109.843 70.6401 106.5 72.9868 106.714C77.4801 107.142 85.9333 107.837 90.2133 108.185C90.8509 108.244 91.4531 108.505 91.9325 108.931C92.412 109.356 92.7439 109.924 92.88 110.551L94.12 115.993" stroke="#001F3F" stroke-width="2" stroke-linecap="round" stroke-linejoin="round"/>
<path d="M171.133 105.042C171.133 105.042 165.92 106.62 161.8 107.623C161.049 107.818 160.381 108.249 159.893 108.853C159.412 109.461 159.132 110.204 159.093 110.979L158.88 117.036" stroke="#001F3F" stroke-width="2" stroke-linecap="round" stroke-linejoin="round"/>
<path d="M69.9067 68.2312L68 99.0788H159.227L141.52 72.1889L69.9067 68.2312Z" fill="white"/>
<path d="M92.64 154.851C92.64 154.851 146.653 155.024 169.213 154.944C176.08 154.944 179.64 152.511 180.813 144.808C181.227 142.135 180.493 137.147 181 135.221C181.261 134.279 181.417 133.31 181.467 132.333C181.575 128.705 181.305 125.075 180.667 121.502C178.16 108.666 173.227 111.902 172.24 105.082C172.183 104.633 172.013 104.205 171.747 103.839C169.72 101.352 162.413 100.028 159.227 99.1856H68.7068V73.7802" stroke="#001F3F" stroke-width="2" stroke-linecap="round" stroke-linejoin="round"/>
<path d="M74.4532 154.784H86.4532" stroke="#001F3F" stroke-width="2" stroke-linecap="round" stroke-linejoin="round"/>
<path d="M47.3734 154.851H58.0401" stroke="#001F3F" stroke-width="2" stroke-linecap="round" stroke-linejoin="round"/>
<path d="M25.0268 138.604C22.4935 131.116 25.2933 114.991 27.2267 109.268C28.24 106.273 28.3333 105.898 33.48 99.1723C35.0667 94.6929 40.56 75.104 47.96 71.828C61.9333 65.8644 138.453 67.5224 142.36 72.3628L157.333 94.6667" stroke="#001F3F" stroke-width="2" stroke-linecap="round" stroke-linejoin="round"/>
<path d="M57.2533 101.178L60.7198 101.472L62.4933 74.3818" stroke="#001F3F" stroke-width="2" stroke-linecap="round" stroke-linejoin="round"/>
<path d="M38.5465 99.5735L43.4266 99.9868" stroke="#001F3F" stroke-width="2" stroke-linecap="round" stroke-linejoin="round"/>
<path d="M52.6133 103.304C51.52 103.304 47.8 103.665 45.9467 102.729C44.8807 102.268 43.9723 101.505 43.3327 100.533C42.6932 99.5618 42.3505 98.4242 42.3467 97.2601C42.3467 94.5858 44.8267 93.797 46.8133 93.797C51.28 93.797 54.48 93.6766 55.1467 95.1341C56.0497 97.194 56.8028 99.3166 57.4 101.485L60.24 101.633" fill="#ECECEC"/>
<path d="M52.6133 103.304C51.52 103.304 47.8 103.665 45.9467 102.729C44.8807 102.268 43.9723 101.505 43.3327 100.533C42.6932 99.5618 42.3505 98.4242 42.3467 97.2601C42.3467 94.5858 44.8267 93.797 46.8133 93.797C51.28 93.797 54.48 93.6766 55.1467 95.1341C56.0497 97.194 56.8028 99.3166 57.4 101.485H60.5029" stroke="#001F3F" stroke-width="2" stroke-linecap="round" stroke-linejoin="round"/>
<path d="M52.5465 76.0801L49.48 89.4515" stroke="#001F3F" stroke-width="2" stroke-linecap="round" stroke-linejoin="round"/>
<path d="M176.787 140.383C175.948 139.957 175.287 139.251 174.916 138.385C174.545 137.52 174.489 136.551 174.76 135.649C175.023 134.747 175.588 133.963 176.36 133.429C177.147 132.906 178.087 132.665 179.027 132.748C179.573 132.874 180.081 133.131 180.507 133.496" stroke="#001F3F" stroke-width="2" stroke-linecap="round" stroke-linejoin="round"/>
<path d="M78.96 135.221C79.0372 134.652 79.2781 134.117 79.6533 133.684C80.0294 133.243 80.525 132.923 81.08 132.761C81.9738 132.662 82.8736 132.89 83.6133 133.403C84.1654 133.785 84.6042 134.309 84.8834 134.92C85.1628 135.532 85.272 136.208 85.1996 136.876C85.1272 137.545 84.8758 138.181 84.4722 138.719C84.0685 139.256 83.5276 139.673 82.9066 139.928C82.5645 140.008 82.2088 140.008 81.8668 139.928" fill="#E6E6E6"/>
<path d="M78.96 135.221C79.0372 134.652 79.2781 134.117 79.6533 133.684C80.0294 133.243 80.525 132.923 81.08 132.761C81.9738 132.662 82.8736 132.89 83.6133 133.403C84.1654 133.785 84.6042 134.309 84.8834 134.92C85.1628 135.532 85.272 136.208 85.1996 136.876C85.1272 137.545 84.8758 138.181 84.4722 138.719C84.0685 139.256 83.5276 139.673 82.9066 139.928C82.5645 140.008 82.2088 140.008 81.8668 139.928" stroke="#001F3F" stroke-width="2" stroke-linecap="round" stroke-linejoin="round"/>
<path opacity="0.06" d="M171.08 154.035L165.453 144.047C164.659 142.412 163.431 141.029 161.904 140.048C160.379 139.067 158.612 138.525 156.8 138.484H101.747C99.9962 138.56 98.2943 139.084 96.803 140.007C95.3117 140.928 94.0804 142.217 93.2266 143.752L86.7466 154.035L98.7466 146.44C100.745 145.184 103.055 144.517 105.413 144.515H154.32C157.065 144.512 159.736 145.413 161.92 147.081L171.08 154.035Z" fill="#001F3F"/>
<path d="M168.373 149.208L165.387 144.047C164.596 142.412 163.372 141.027 161.848 140.045C160.323 139.064 158.557 138.524 156.747 138.484C156.747 138.484 137.4 138.992 131.027 138.992C123.693 138.992 101.693 138.484 101.693 138.484C99.9454 138.563 98.2462 139.088 96.7574 140.009C95.2686 140.932 94.0395 142.22 93.1867 143.752L86.52 154.583" stroke="#001F3F" stroke-width="2" stroke-linecap="round" stroke-linejoin="round"/>
<path d="M154.573 108.773C139.427 110.11 114.573 109.655 98.1599 108.773" stroke="#001F3F" stroke-width="2" stroke-linecap="round" stroke-linejoin="round"/>
<path opacity="0.06" d="M85.1599 68.6857L99.9599 99.1723H118.72L103.107 67.6561L85.1599 68.6857Z" fill="#001F3F"/>
<path opacity="0.06" d="M111.747 68.6857L126.533 99.1723L162 100.667L141.467 72.1891L111.747 68.6857Z" fill="#001F3F"/>
<path d="M69.5465 132.614C72.1065 135.836 73.8533 144.033 73.8533 151.588C73.8533 159.143 72.1466 165.548 69.64 168.796" stroke="#001F3F" stroke-width="2" stroke-linecap="round" stroke-linejoin="round"/>
<path d="M37.6267 167.767C37.4205 168.127 37.1888 168.471 36.9333 168.796" stroke="#001F3F" stroke-width="2" stroke-linecap="round" stroke-linejoin="round"/>
<path d="M36.8799 132.614C39.4399 135.836 41.1867 144.033 41.1867 151.588C41.2133 155.079 40.8103 158.559 39.9867 161.951" stroke="#001F3F" stroke-width="2" stroke-linecap="round" stroke-linejoin="round"/>
<path d="M47.2933 108.773C47.2933 108.773 43.4399 117.959 46.1866 137.856" stroke="#001F3F" stroke-width="2" stroke-linecap="round" stroke-linejoin="round"/>
<path d="M38.52 115.472L39.0534 115.512" stroke="#001F3F" stroke-width="2" stroke-linecap="round" stroke-linejoin="round"/>
<path d="M51.0533 116.943L51.5867 117.009" stroke="#001F3F" stroke-width="2" stroke-linecap="round" stroke-linejoin="round"/>
</g>
</svg>
