<svg width="200" height="200" viewBox="0 0 200 200" fill="none" xmlns="http://www.w3.org/2000/svg">
<path d="M55.4033 173.067H30.7317V114.095L55.4033 102.848V173.067Z" fill="#ECECEC" stroke="#001F3F" stroke-width="2" stroke-linecap="round" stroke-linejoin="round"/>
<path opacity="0.07" d="M54.3428 173.067H50.6726L50.0448 130.757H30.7317V116.886H48.7888L51.775 100.099H54.3428V173.067Z" fill="#001F3F"/>
<path d="M66.7344 122.035L66.9018 100.796" stroke="#001F3F" stroke-width="2" stroke-linecap="round" stroke-linejoin="round"/>
<path d="M85.0984 122.035L55.5847 91.0144H36.1583C35.8799 91.0144 35.6281 91.1799 35.5177 91.4355L29.0015 106.525L22.724 121.061C22.5712 121.415 22.7341 121.825 23.088 121.978C23.1753 122.016 23.2695 122.035 23.3645 122.035H54.3567" fill="white"/>
<path d="M85.0984 122.035L55.5847 91.0144H36.1583C35.8799 91.0144 35.6281 91.1799 35.5177 91.4355L29.0015 106.525L22.724 121.061C22.5712 121.415 22.7341 121.825 23.088 121.978C23.1753 122.016 23.2695 122.035 23.3645 122.035H54.3567" stroke="#001F3F" stroke-width="2" stroke-linecap="round" stroke-linejoin="round"/>
<path d="M50.7564 100.838H45.1168C44.7315 100.838 44.4191 100.526 44.4191 100.141C44.4191 99.9627 44.4871 99.7913 44.6092 99.6619L78.4839 63.7333H116.398L81.3725 100.838" fill="#E6E6E6"/>
<path d="M50.7564 100.838H45.1168C44.7315 100.838 44.4191 100.526 44.4191 100.141C44.4191 99.9627 44.4871 99.7913 44.6092 99.6619L78.4839 63.7333H116.398L81.3725 100.838" stroke="#001F3F" stroke-width="2" stroke-linecap="round" stroke-linejoin="round"/>
<path d="M84.0239 67.9894L114.598 94.3076L109.742 173.067H55.4032L55.0126 97.4054L79.2794 72.5944" fill="#F7F7F7"/>
<path d="M84.0239 67.9894L114.598 94.3076L109.742 173.067H55.4032L55.0126 97.4054L79.2794 72.5944" stroke="#001F3F" stroke-width="2" stroke-linecap="round" stroke-linejoin="round"/>
<path d="M109.575 103.922V173.067H138.223V108.527L109.575 91.8376" fill="#E0E1E2"/>
<path d="M109.575 103.922V173.067H138.223V108.527L109.575 91.8376" stroke="#001F3F" stroke-width="2" stroke-linecap="round" stroke-linejoin="round"/>
<path d="M37.374 173.067H159.169" stroke="#001F3F" stroke-width="2" stroke-linecap="round" stroke-linejoin="round"/>
<path d="M162.476 91.0144L178.545 121.008C178.728 121.348 178.6 121.77 178.26 121.952C178.159 122.007 178.045 122.035 177.931 122.035H134.26" fill="#E6E6E6"/>
<path d="M162.476 91.0144L178.545 121.008C178.728 121.348 178.6 121.77 178.26 121.952C178.159 122.007 178.045 122.035 177.931 122.035H134.26" stroke="#001F3F" stroke-width="2" stroke-linecap="round" stroke-linejoin="round"/>
<path d="M122.608 173.067H152.065V114.095H122.608" fill="#F7F7F7"/>
<path d="M122.608 173.067H152.065V114.095H122.608" stroke="#001F3F" stroke-width="2" stroke-linecap="round" stroke-linejoin="round"/>
<path d="M122.608 122.286V167.987" stroke="#001F3F" stroke-width="2" stroke-linecap="round" stroke-linejoin="round"/>
<path d="M156.964 93.2192L150.015 114.179L149.861 114.095V173.067H169.885V119.445C169.885 119.332 169.857 119.22 169.805 119.119L162.992 106.225" fill="#E0E1E2"/>
<path d="M156.964 93.2192L150.015 114.179L149.861 114.095V173.067H169.885V119.445C169.885 119.332 169.857 119.22 169.805 119.119L162.992 106.225" stroke="#001F3F" stroke-width="2" stroke-linecap="round" stroke-linejoin="round"/>
<path opacity="0.07" d="M159.196 98.759L122.608 104.718L123.334 127.129H149.861L157.815 107.815L168.992 126.152L168.797 116.691L159.196 98.759Z" fill="#001F3F"/>
<path d="M122.329 100.099L110.203 91.0144H161.539C161.924 91.0144 162.236 91.3267 162.236 91.7121C162.236 91.78 162.227 91.8476 162.207 91.9125L153.317 121.538C153.229 121.833 152.957 122.035 152.649 122.035H119.544C119.158 122.035 118.846 121.723 118.846 121.337C118.846 121.279 118.853 121.221 118.868 121.165L122.706 106.155" fill="white"/>
<path d="M122.329 100.099L110.203 91.0144H161.539C161.924 91.0144 162.236 91.3267 162.236 91.7121C162.236 91.78 162.227 91.8476 162.207 91.9125L153.317 121.538C153.229 121.833 152.957 122.035 152.649 122.035H119.544C119.158 122.035 118.846 121.723 118.846 121.337C118.846 121.279 118.853 121.221 118.868 121.165L122.706 106.155" stroke="#001F3F" stroke-width="2" stroke-linecap="round" stroke-linejoin="round"/>
<path d="M81.3726 94.4751C84.4322 94.4751 86.9125 91.7324 86.9125 88.3491C86.9125 84.9658 84.4322 82.2231 81.3726 82.2231C78.3129 82.2231 75.8326 84.9658 75.8326 88.3491C75.8326 91.7324 78.3129 94.4751 81.3726 94.4751Z" fill="white"/>
<path opacity="0.07" d="M53.7286 107.55L81.1353 80.1299L108.877 108.974L122.273 108.667L129.013 101.383L107.97 89.1444L82.1958 69.7616L53.9101 96.7775L53.7286 107.55Z" fill="#001F3F"/>
<path d="M99.7505 109.099H64.4875V150.531H99.7505V109.099Z" fill="white"/>
<path d="M142.256 144.335V153.321H129.585V139.869C129.585 138.189 130.253 136.58 131.441 135.395C132.63 134.208 134.241 133.544 135.92 133.548C139.413 133.548 142.248 136.376 142.256 139.869V140.413" fill="white"/>
<path d="M142.256 144.335V153.321H129.585V139.869C129.585 138.191 130.253 136.58 131.441 135.395C132.63 134.208 134.241 133.544 135.92 133.548C139.413 133.548 142.248 136.376 142.256 139.869V140.413" stroke="#001F3F" stroke-width="2" stroke-linecap="round" stroke-linejoin="round"/>
<path d="M164.891 140.553V153.321H156.839V140.051C156.839 136.729 158.639 134.036 160.857 134.036C163.089 134.036 164.891 136.729 164.891 140.051V140.567" fill="white"/>
<path d="M153.517 94.3076L146.247 113.551" stroke="white"/>
<path d="M43.1931 133.115C44.8734 133.115 46.4847 133.783 47.6729 134.971C48.861 136.159 49.5285 137.771 49.5285 139.451V152.903H36.8578V139.451C36.8578 137.771 37.5253 136.159 38.7134 134.971C39.9015 133.783 41.5129 133.115 43.1931 133.115Z" fill="white"/>
<path d="M81.3726 94.4751C84.4322 94.4751 86.9125 91.7324 86.9125 88.3491C86.9125 84.9658 84.4322 82.2231 81.3726 82.2231C78.3129 82.2231 75.8326 84.9658 75.8326 88.3491C75.8326 91.7324 78.3129 94.4751 81.3726 94.4751Z" stroke="#001F3F" stroke-width="2" stroke-linecap="round" stroke-linejoin="round"/>
<path d="M99.7505 109.099H64.4875V150.531H99.7505V109.099Z" stroke="#001F3F" stroke-width="2" stroke-linecap="round" stroke-linejoin="round"/>
<path d="M82.126 113.579V146.329" stroke="#001F3F" stroke-width="2" stroke-linecap="round" stroke-linejoin="round"/>
<path d="M64.4875 130.757H93.8338" stroke="#001F3F" stroke-width="2" stroke-linecap="round" stroke-linejoin="round"/>
<path d="M164.891 140.553V153.321H156.839V140.051C156.839 136.729 158.639 134.036 160.857 134.036C163.089 134.036 164.891 136.729 164.891 140.051V140.567" stroke="#001F3F" stroke-width="2" stroke-linecap="round" stroke-linejoin="round"/>
<path fill-rule="evenodd" clip-rule="evenodd" d="M43.1931 133.115C44.8734 133.115 46.4847 133.783 47.6729 134.971C48.861 136.159 49.5285 137.771 49.5285 139.451V152.903H36.8578V139.451C36.8578 137.771 37.5253 136.159 38.7134 134.971C39.9015 133.783 41.5129 133.115 43.1931 133.115Z" stroke="#001F3F" stroke-width="2" stroke-linecap="round" stroke-linejoin="round"/>
<path d="M119.817 91.0004L128.72 100.838H113.769C113.577 100.838 113.393 100.759 113.261 100.619L78.484 63.7333H115.935C116.132 63.7333 116.32 63.8167 116.453 63.9628L138.069 87.8467" fill="white"/>
<path d="M119.817 91.0004L128.72 100.838H113.769C113.577 100.838 113.393 100.759 113.261 100.619L78.484 63.7333H115.935C116.132 63.7333 116.32 63.8167 116.453 63.9628L138.069 87.8467" stroke="#001F3F" stroke-width="2" stroke-linecap="round" stroke-linejoin="round"/>
<path d="M140.944 91.0004H119.817" stroke="#001F3F" stroke-width="2" stroke-linecap="round" stroke-linejoin="round"/>
<path d="M24.1732 173.067H177.225" stroke="#001F3F" stroke-width="2" stroke-linecap="round" stroke-linejoin="round"/>
<path d="M64.3162 150.667L72.56 111.333H86.6551L78.4192 150.667H64.3162Z" fill="#4A4A4A" fill-opacity="0.05"/>
<path d="M86.4324 150.667L94.5288 112H98.6666L100.539 150.667H86.4324Z" fill="#4A4A4A" fill-opacity="0.05"/>
<path d="M37.3334 150L38 144.667L39.3067 136.667L42.6667 134.667H45.8616L39.3067 153.705L37.3334 150Z" fill="#4A4A4A" fill-opacity="0.05"/>
<path d="M49.4721 135.333L51.5425 140.667L47.3333 152.892H42.88L49.4721 135.333Z" fill="#4A4A4A" fill-opacity="0.05"/>
<path d="M126.667 150L127.333 144.667L128.64 136.667L132 134.667H135.195L128.64 153.705L126.667 150Z" fill="#4A4A4A" fill-opacity="0.05"/>
<path d="M138.805 135.333L140.876 140.667L136.667 152.892H132.213L138.805 135.333Z" fill="#4A4A4A" fill-opacity="0.05"/>
</svg>
