<svg width="200" height="200" viewBox="0 0 200 200" fill="none" xmlns="http://www.w3.org/2000/svg">
<path fill-rule="evenodd" clip-rule="evenodd" d="M43.9695 173.333H171.547L172.396 64.1316C172.424 63.1912 171.931 62.3148 171.121 61.867L161.22 56.5636C160.509 56.193 159.723 56.0004 158.925 56.0004H45.9544L43.9695 173.333Z" fill="#ECECEC"/>
<path fill-rule="evenodd" clip-rule="evenodd" d="M43.9695 173.333H171.547L172.396 64.1316C172.424 63.1912 171.931 62.3148 171.121 61.867L161.22 56.5636C160.509 56.193 159.723 56.0004 158.925 56.0004H45.9544L43.9695 173.333Z" stroke="#001F3F" stroke-width="2" stroke-linecap="round" stroke-linejoin="round"/>
<path fill-rule="evenodd" clip-rule="evenodd" d="M159.292 56.0002H36.7639C35.9159 55.991 35.0993 56.3274 34.4943 56.935C33.8893 57.5427 33.5458 58.3717 33.5398 59.2389L31.6689 169.696C31.651 170.641 32.0055 171.555 32.653 172.231C33.3006 172.907 34.1867 173.287 35.1117 173.287H157.777" fill="white"/>
<path d="M159.292 56.0002H36.7639C35.9159 55.991 35.0993 56.3274 34.4943 56.935C33.8893 57.5427 33.5458 58.3717 33.5398 59.2389L31.6689 169.696C31.651 170.641 32.0055 171.555 32.653 172.231C33.3006 172.907 34.1867 173.287 35.1117 173.287H156.103" stroke="#001F3F" stroke-width="2" stroke-linecap="round" stroke-linejoin="round"/>
<path d="M158.168 173.287L158.397 159.429" stroke="#001F3F" stroke-width="2" stroke-linecap="round" stroke-linejoin="round"/>
<path d="M158.787 136.491L160.061 60.7993" stroke="#001F3F" stroke-width="2" stroke-linecap="round" stroke-linejoin="round"/>
<path d="M158.581 148.904L158.627 146.488" stroke="#001F3F" stroke-width="2" stroke-linecap="round" stroke-linejoin="round"/>
<path fill-rule="evenodd" clip-rule="evenodd" d="M44.0154 158.831H146.247L149.127 66.9944H44.394L44.0154 158.831Z" fill="#F9F9F9"/>
<path fill-rule="evenodd" clip-rule="evenodd" d="M94.5689 160.251L42.7649 160.087L43.3845 123.49C67.7394 118.961 85.0112 118.257 95.2 121.378" fill="#F7F7F7"/>
<path opacity="0.05" fill-rule="evenodd" clip-rule="evenodd" d="M43.7745 158.185C60.9852 155.713 71.147 153.367 74.2602 151.145C74.2029 151.251 74.8684 151.04 74.8111 151.145C73.9734 152.776 72.7343 155.533 71.128 159.359C59.3559 160.055 50.7582 160.279 45.3349 160.028C42.5238 160.051 41.9961 159.417 43.7745 158.185Z" fill="#001F3F"/>
<path opacity="0.05" d="M43.9351 139.013L41.583 131.739C47.2875 129.87 53.1107 128.404 59.0117 127.351L63.211 133.721C56.6877 135.088 50.2507 136.856 43.9351 139.013Z" fill="#001F3F"/>
<path opacity="0.05" d="M43.178 152.964L42.2026 145.373C58.7249 143.155 72.9293 139.307 85.493 135.787L86.824 135.423L88.763 142.815L87.4321 143.179C74.6389 146.723 60.182 150.688 43.178 152.964Z" fill="#001F3F"/>
<path fill-rule="evenodd" clip-rule="evenodd" d="M95.1997 121.378C102.761 123.725 110.211 120.572 118.698 121.248C127.185 121.924 126.672 130.26 131.388 123.08C131.388 123.08 144.009 120.475 148.759 125.532L147.911 160.427L94.5686 160.263" fill="#F7F7F7"/>
<path fill-rule="evenodd" clip-rule="evenodd" d="M115.282 130.498C117.721 132.851 117.721 135.689 115.282 139.013C114.138 142.177 113.669 143.945 113.876 144.317C119.958 149.175 123.4 154.364 124.202 159.883C115.311 159.88 107.418 154.3 100.523 143.144L115.282 130.498Z" fill="#4A4A4A" fill-opacity="0.05"/>
<path fill-rule="evenodd" clip-rule="evenodd" d="M110.116 114.045C107.821 111.569 107.821 105.057 107.373 102.582C106.926 100.106 110.884 89.0883 110.884 89.0883L120.671 91.6813L131.227 89.5459L131.445 95.7293C131.445 95.7293 133.201 99.4136 134.831 99.4136C136.459 99.4136 136.149 95.8115 139.224 93.8989C142.3 91.9864 143.952 93.8989 144.503 98.956C145.053 104.013 138.571 104.823 138.571 104.823L137.836 122.024C137.997 125.121 136.929 127.081 135.232 129.498C133.006 132.677 131.193 133.299 126.592 133.675C123.996 133.931 121.526 132.475 120.442 130.049C118.939 128.958 118.836 126.189 118.893 125.063L119.042 121.66C115.94 119.28 112.961 116.739 110.116 114.045Z" fill="white"/>
<path fill-rule="evenodd" clip-rule="evenodd" d="M43.04 108.953C45.4495 114.937 49.9816 115.253 52.5174 114.139L51.7944 103.778C49.1432 103.195 47.2022 100.869 47.0558 98.0994C46.8034 93.3122 49.4768 89.7453 53.5959 94.204C55.7415 99.9416 57.5543 97.3485 62.2011 90.1912C68.9363 95.3304 76.6695 90.9538 76.6695 90.9538C79.459 92.9081 82.8832 93.6741 86.2158 93.0893C90.5183 91.6461 90.1283 86.3426 87.5926 83.8904C90.5068 77.3432 81.2246 71.2418 63.3371 74.1165C59.3556 71.5821 44.9791 71.9576 43.3727 86.1666" fill="#E0E0E0"/>
<path fill-rule="evenodd" clip-rule="evenodd" d="M83.5653 93.9576L76.681 90.9538C76.681 90.9538 65.7695 93.453 64.0599 91.9394C62.3503 90.4258 60.1015 88.5602 59.6081 92.7842C59.1147 97.0082 53.7794 96.7853 53.7794 96.7853C53.7794 96.7853 52.5174 88.9005 49.6949 92.268C45.5527 97.2194 51.8289 103.098 51.8289 103.098L52.5059 117.436V122.387C52.4026 124.98 54.0089 127.573 54.9842 129.92C56.7626 132.267 59.7802 133.768 64.473 132.9C71.5178 131.61 71.1737 126.377 71.1737 126.377L71.8449 120.572" fill="white"/>
<path d="M52.9763 92.5614C53.0567 95.1075 53.3091 96.1987 53.791 96.7854C54.4306 97.6087 55.5277 97.8963 56.4758 97.4894C58.7706 96.3864 58.5297 92.2915 60.5834 90.731C61.2857 90.2832 62.1759 90.2832 62.8782 90.731C69.4297 95.0254 76.6467 90.9656 76.6467 90.9656C79.2697 92.7456 82.4842 93.3675 85.5618 92.6904C88.935 91.6931 90.6905 86.1198 88.1663 83.6675C91.0577 77.1203 77.5302 68.9071 62.075 74.7736C58.5641 73.0254 48.3066 73.8232 44.635 79.467" stroke="#001F3F" stroke-width="2" stroke-linecap="round" stroke-linejoin="round"/>
<path d="M51.6225 122.141C49.5916 122.352 45.4496 123.408 43.522 126.377" stroke="#001F3F" stroke-width="2" stroke-linecap="round" stroke-linejoin="round"/>
<path d="M53.0366 92.2446C50.4206 91.564 47.8275 93.852 48.1258 97.6302C48.3934 99.7914 49.8753 101.592 51.9121 102.23L51.6683 121.59C53.6533 130.659 58.3346 133.535 63.4174 132.666C71.0474 131.375 71.1736 121.695 71.1736 121.695V119.654" stroke="#001F3F" stroke-width="2" stroke-linecap="round" stroke-linejoin="round"/>
<path d="M49.3047 122.55C50.9086 122.037 51.7176 121.812 51.732 121.875C53.752 130.72 58.3882 133.525 63.4174 132.666C71.0474 131.375 71.1736 121.695 71.1736 121.695V119.653" stroke="#001F3F" stroke-width="2" stroke-linecap="round" stroke-linejoin="round"/>
<path d="M43.9236 111.769C45.1283 113.74 48.6852 114.679 50.8996 114.291" stroke="#001F3F" stroke-width="2" stroke-linecap="round" stroke-linejoin="round"/>
<path fill-rule="evenodd" clip-rule="evenodd" d="M62.3733 119.36C62.3733 119.36 73.5373 125.227 81.305 116.274C87.0418 109.352 86.3534 101.878 84.4373 95.6355" fill="white"/>
<path d="M65.0813 119.419C68.8906 120.451 76.1076 120.768 81.1445 115.206C86.4194 109.435 84.4968 103.197 83.9924 97.4775" stroke="#001F3F" stroke-width="2" stroke-linecap="round" stroke-linejoin="round"/>
<path d="M78.9185 98.9442L78.9874 99.9767" stroke="#001F3F" stroke-width="1.4" stroke-linecap="round" stroke-linejoin="round"/>
<path d="M63.2683 99.9417L63.3487 100.927" stroke="#001F3F" stroke-width="1.4" stroke-linecap="round" stroke-linejoin="round"/>
<path fill-rule="evenodd" clip-rule="evenodd" d="M74.6044 100.822C74.6044 100.822 73.2734 103.497 69.0854 101.573L74.6044 100.822Z" fill="white"/>
<path d="M74.3177 102.23C74.3177 102.23 72.3212 104.67 68.9136 102.593" stroke="#001F3F" stroke-width="1.4" stroke-linecap="round" stroke-linejoin="round"/>
<path d="M138.352 121.977C138.352 121.977 145.237 123.467 147.979 126.893" stroke="#001F3F" stroke-width="2" stroke-linecap="round" stroke-linejoin="round"/>
<path fill-rule="evenodd" clip-rule="evenodd" d="M108.44 93.9576C106.088 89.9096 106.972 84.571 106.972 84.571C106.972 84.571 107.97 72.8376 126.58 72.9784C144.767 73.1192 146.785 82.9166 146.785 82.9166C147.659 83.3142 148.493 83.7975 149.276 84.3598C150.629 85.3102 148.641 98.2182 149.471 105.879C146.369 109.645 142.359 112.517 137.836 114.209L138.651 104.142C140.941 104.468 143.177 103.252 144.192 101.127C145.936 97.4659 142.689 90.379 138.02 95.5064C134.864 100.986 131.388 99.9886 131.216 96.6094C131.066 93.5235 131.675 88.0675 129.598 88.9944C127.521 89.9214 118.342 93.4062 111.114 88.9006" fill="#E0E0E0"/>
<path d="M147.807 108.096C145.105 111.043 141.659 113.168 137.848 114.233L138.663 104.166C140.953 104.492 143.189 103.275 144.204 101.15C145.903 96.9965 141.256 90.1208 138.031 95.2835C135.312 101.15 131.858 100.399 131.686 97.0317C131.537 93.9459 132.294 89.3816 130.218 90.3203C128.141 91.2589 115.394 93.5469 109.691 88.0909" stroke="#001F3F" stroke-width="2" stroke-linecap="round" stroke-linejoin="round"/>
<path d="M148.277 82.6642C134.073 65.8152 106.96 72.1924 105.492 85.6504C105.273 87.6926 105.664 89.7493 106.606 91.5522" stroke="#001F3F" stroke-width="2" stroke-linecap="round" stroke-linejoin="round"/>
<path d="M137.893 114.233L137.561 118.433C137.216 128.524 131.698 133.217 126.925 132.701C122.335 132.56 117.746 128.794 119.375 120.51L118.698 118.41" stroke="#001F3F" stroke-width="2" stroke-linecap="round" stroke-linejoin="round"/>
<path d="M137.193 122.006C135.832 129.629 131.094 133.152 126.925 132.701C122.856 132.576 118.787 129.601 119.052 123.156C119.074 122.606 119.074 122.013 119.052 121.378" stroke="#001F3F" stroke-width="2" stroke-linecap="round" stroke-linejoin="round"/>
<path fill-rule="evenodd" clip-rule="evenodd" d="M126.064 120.909C126.064 120.909 116.885 124.3 110.93 116.673C106.341 110.807 104.78 103.767 108.636 97.1139C109.709 95.2245 110.66 93.2647 111.481 91.2472" fill="white"/>
<path d="M128.061 119.677C128.061 119.677 119.237 123.021 112.101 116.779C106.57 111.945 105.216 104.306 108.05 97.3369C109.278 94.3097 110.345 92.3502 110.999 90.1091" stroke="#001F3F" stroke-width="2" stroke-linecap="round" stroke-linejoin="round"/>
<path d="M112.445 97.724L112.192 98.8035" stroke="#001F3F" stroke-width="1.4" stroke-linecap="round" stroke-linejoin="round"/>
<path d="M126.615 100.481L126.443 101.432" stroke="#001F3F" stroke-width="1.4" stroke-linecap="round" stroke-linejoin="round"/>
<path fill-rule="evenodd" clip-rule="evenodd" d="M115.841 100.939C115.841 100.939 116.552 103.356 120.43 102.253L115.841 100.939Z" fill="white"/>
<path d="M116.071 101.479C116.071 101.479 117.665 103.497 120.867 102.147" stroke="#001F3F" stroke-width="1.4" stroke-linecap="round" stroke-linejoin="round"/>
<path d="M118.296 158.819C116.862 154.56 113.707 148.776 108.246 147.085C103.633 145.62 98.7496 145.275 93.9836 146.077H96.7143C91.9483 145.275 87.0651 145.62 82.4524 147.085C77.0368 148.74 72.9178 154.455 71.4836 158.713" fill="#ECECEC"/>
<path d="M72.9275 155.991C74.5838 151.707 78.0896 148.419 82.4524 147.121C87.0651 145.656 91.9483 145.311 96.7143 146.112H93.9835C98.7495 145.311 103.633 145.656 108.245 147.121C112.382 148.352 115.748 151.371 117.497 155.331" stroke="#001F3F" stroke-width="2" stroke-linecap="round" stroke-linejoin="round"/>
<path fill-rule="evenodd" clip-rule="evenodd" d="M98.791 153.739C98.791 153.739 103.025 149.045 107.626 152.108C110.405 154.001 112.56 156.708 113.81 159.875C113.81 159.875 119.822 160.239 118.055 155.816C116.288 151.392 106.387 146.429 106.387 146.429L101.189 148.845L98.791 153.739Z" fill="#4A4A4A" fill-opacity="0.05"/>
<path fill-rule="evenodd" clip-rule="evenodd" d="M79.756 137.195C75.3385 136.913 72.7684 129.216 78.6085 126.963L95.8995 122.071L113.385 126.764C119.122 129.017 116.575 137.229 112.502 137.007" fill="white"/>
<path d="M79.756 137.124C74.9485 137.383 73.0553 129.31 78.9298 127.057L96.6223 123.866L112.915 127.128C118.652 129.064 116.46 136.984 112.215 136.901" stroke="#001F3F" stroke-width="2" stroke-linecap="round" stroke-linejoin="round"/>
<path fill-rule="evenodd" clip-rule="evenodd" d="M101.189 148.835C100.891 152.108 99.8008 156.672 96.026 156.707C90.4153 156.707 90.0481 151.169 90.0481 151.169L90.2546 148.94L93.777 144.317" fill="white"/>
<path fill-rule="evenodd" clip-rule="evenodd" d="M79.8364 137.207C80.7108 145.363 87.4632 151.528 95.4866 151.497C103.735 151.46 110.671 145.157 111.676 136.784" fill="white"/>
<path d="M89.2908 149.515C89.4858 151.568 90.4381 155.921 94.5342 156.015C98.6304 156.109 100.03 152.013 100.466 149.715" stroke="#001F3F" stroke-width="2" stroke-linecap="round" stroke-linejoin="round"/>
<path d="M79.8364 137.207C80.4675 143.073 84.1964 146.757 89.3482 148.94M100.019 149.527C106.191 147.684 110.896 143.46 111.676 136.76" stroke="#001F3F" stroke-width="2" stroke-linecap="round" stroke-linejoin="round"/>
<path fill-rule="evenodd" clip-rule="evenodd" d="M110.953 120.334C113.753 123.948 112.869 130.777 109.806 131.504C106.742 132.232 106.146 126.975 106.146 126.975C106.146 126.975 100.787 128.982 96.6339 126.647C92.9509 128.618 86.1813 127.374 86.1813 127.374C86.1813 127.374 83.8866 132.642 80.9951 131.094C79.8478 130.612 75.1665 114.397 90.5643 116.579C94.6145 110.408 103.598 113.247 104.333 116.579C107.385 117.553 109.094 117.366 111.033 119.876" fill="#E6E6E6"/>
<path fill-rule="evenodd" clip-rule="evenodd" d="M110.253 131.504C107.087 132.243 106.444 126.975 106.444 126.975C106.444 126.975 100.845 130.014 95.7733 127.268C91.1838 130.014 85.837 127.374 85.837 127.374C85.837 127.374 83.4161 132.642 80.4789 131.093C79.2512 130.612 77.0368 115.84 90.8052 117.013C93.7081 111.499 101.74 113.881 103.174 117.189C113.994 117.882 113.42 130.777 110.253 131.504Z" stroke="#001F3F" stroke-width="2" stroke-linecap="round" stroke-linejoin="round"/>
<path d="M102.715 133.17L102.703 134.061" stroke="#001F3F" stroke-width="1.4" stroke-linecap="round" stroke-linejoin="round"/>
<path d="M88.2466 133.17L88.2236 134.061" stroke="#001F3F" stroke-width="1.4" stroke-linecap="round" stroke-linejoin="round"/>
<path fill-rule="evenodd" clip-rule="evenodd" d="M97.6092 134.931C96.2465 136.228 94.1582 136.303 92.71 135.107L97.6092 134.931Z" fill="white"/>
<path d="M97.6092 134.931C96.2465 136.228 94.1582 136.303 92.71 135.107" stroke="#001F3F" stroke-width="1.4" stroke-linecap="round" stroke-linejoin="round"/>
<path d="M59.5852 160.087H147.475L148.92 66.7716H44.1989L42.7532 160.087H52.8042" stroke="#001F3F" stroke-width="2" stroke-linecap="round" stroke-linejoin="round"/>
<path opacity="0.05" fill-rule="evenodd" clip-rule="evenodd" d="M44.2563 86.7181C44.2563 86.7181 53.55 75.2194 63.7617 81.1213C70.7836 78.0472 79.2397 78.9741 81.2017 84.7234C82.3491 88.6541 78.9071 89.804 74.8453 88.0909C70.164 91.3645 60.113 87.0936 61.0768 90.9069C62.5798 92.7842 70.7492 93.4413 75.1551 91.9159C82.0393 95.0018 85.4815 92.8429 87.1452 90.7426C88.8088 88.6424 89.3137 85.7794 88.8202 85.0754C88.3269 84.3714 90.4955 75.2194 76.9565 73.5885C63.4175 71.9576 63.0847 76.076 63.0847 76.076C63.0847 76.076 51.4504 71.7581 44.0957 79.7016C43.9656 82.041 44.0193 84.3874 44.2563 86.7181Z" fill="#001F3F"/>
<path opacity="0.05" fill-rule="evenodd" clip-rule="evenodd" d="M59.7461 93.0424C59.7461 93.0424 63.7274 99.2963 74.1341 96.5624C75.5965 97.1464 77.0906 97.6439 78.6089 98.0526C78.6089 98.0526 80.7545 106.935 76.5896 112.637C73.9462 116.105 70.156 118.466 65.9304 119.278C65.9304 119.278 64.6568 121.719 66.3664 122.528C68.076 123.338 69.9921 130.354 69.9921 130.354L72.218 119.959C72.218 119.959 83.8065 117.037 84.0589 108.225C84.3009 103.602 83.8442 98.9671 82.705 94.4856C82.705 94.4856 76.9681 94.2979 75.1324 91.916C73.2736 93.4179 66.0452 94.4857 61.0312 91.787C59.5625 92.3737 59.7461 93.0424 59.7461 93.0424Z" fill="#001F3F"/>
<path opacity="0.05" fill-rule="evenodd" clip-rule="evenodd" d="M81.1329 122.61C81.1329 122.61 81.4426 126.506 84.7012 122.716C88.0516 123.126 91.8724 124.276 94.6718 122.082C99.0434 123.256 104.035 122.61 105.102 121.777C107.993 122.81 109.932 123.643 109.932 119.958C111.561 121.613 111.814 124.945 111.814 124.945C111.814 124.945 111.814 129.427 110.953 129.732C110.093 130.037 108.555 131.61 108.303 129.474C108.012 128.006 107.253 126.677 106.146 125.696L102.382 127.444L95.498 125.626L90.461 127.867L85.2176 126.036L83.1981 129.791L80.1461 130.249L79.1824 124.276L80.9608 122.974" fill="#001F3F"/>
<path opacity="0.05" fill-rule="evenodd" clip-rule="evenodd" d="M83.1982 129.791L86.9042 128.935C86.9042 128.935 92.0445 130.436 95.3834 129.521C98.1158 130.23 100.967 130.319 103.736 129.779C104.572 130.95 105.749 131.821 107.098 132.267C107.098 132.267 105.951 144 97.2765 147.837C97.2444 150.14 97.3286 152.443 97.5289 154.736L100.042 151.451C100.042 151.451 99.9614 148.963 100.466 148.835C100.971 148.705 109.347 145.08 111.538 136.936L115.967 133.78C115.967 133.78 117.642 126.952 114.82 125.825C111.997 124.699 111.986 127.738 111.986 127.738L110.196 130.225C110.196 130.225 107.557 129.392 107.293 127.808C107.029 126.224 106.398 126.236 106.398 126.236C103.836 126.745 101.228 126.965 98.6189 126.893L95.8194 125.99L91.4134 126.694L86.1929 126.107L83.1982 129.791Z" fill="#001F3F"/>
<path opacity="0.05" fill-rule="evenodd" clip-rule="evenodd" d="M129.369 92.1507C129.369 92.1507 124.435 96.0579 115.176 95.7411C111.848 102.241 112.881 109.821 114.258 111.945C115.635 114.068 120.912 116.931 128.566 116.368C132.076 119.196 125.915 119.888 125.915 119.888L123.815 124.054V132.384C123.815 132.384 119.696 128.747 120.19 120.803C117.424 119.36 110.862 117.811 109.588 112.449C108.314 107.087 107.5 101.983 109.347 97.5128C110.363 95.0688 111.248 92.5699 111.997 90.027C111.997 90.027 121.968 93.9811 129.369 92.1507Z" fill="#001F3F"/>
<path opacity="0.05" fill-rule="evenodd" clip-rule="evenodd" d="M118.411 75.0317C118.411 75.0317 110.38 82.8109 113.925 86.0728C117.47 89.3347 123.425 90.3437 130.183 88.2552C133.304 88.6424 131.939 92.7608 131.939 92.7608L128.29 91.7517C128.29 91.7517 115.325 92.5261 112.858 91.2003L111.183 92.5965L110.276 95.2483C110.276 95.2483 104.723 89.4989 106.926 84.2072C108.455 80.8965 111.064 78.2333 114.304 76.6744L118.411 75.0317Z" fill="#001F3F"/>
<path d="M186.449 173.333H14.6667" stroke="#001F3F" stroke-width="2" stroke-linecap="round" stroke-linejoin="round"/>
</svg>
