<svg width="200" height="200" viewBox="0 0 200 200" fill="none" xmlns="http://www.w3.org/2000/svg">
<path fill-rule="evenodd" clip-rule="evenodd" d="M144.011 162.04C144.011 162.04 170.677 164.056 170.631 173.604H108.841" fill="#ECECEC"/>
<path d="M144.809 162.04C144.809 162.04 172.083 164.056 172.035 173.604H108.841" stroke="#001F3F" stroke-width="1.875" stroke-linecap="round" stroke-linejoin="round"/>
<path fill-rule="evenodd" clip-rule="evenodd" d="M69.6464 92.0058C69.6464 92.0058 49.0016 77.637 54.5331 69.4606C60.0076 61.3639 76.9336 72.1291 76.9336 72.1291" fill="white"/>
<path d="M69.6464 92.0058C69.6464 92.0058 49.0016 77.637 54.5331 69.4606C60.0076 61.3639 76.9336 72.1291 76.9336 72.1291" stroke="#001F3F" stroke-width="1.875" stroke-linecap="round" stroke-linejoin="round"/>
<path fill-rule="evenodd" clip-rule="evenodd" d="M62.2696 72.5819C62.2696 72.5819 61.2528 74.6643 64.608 77.0692L67.2109 78.9355" fill="#F7F7F7"/>
<path d="M62.2696 72.5819C62.2696 72.5819 61.2528 74.6643 64.608 77.0692L67.2109 78.9355" stroke="#001F3F" stroke-width="1.875" stroke-linecap="round" stroke-linejoin="round"/>
<path fill-rule="evenodd" clip-rule="evenodd" d="M86.7746 64.1044C86.7746 64.1044 85.9577 46.2268 94.7091 45.6162C103.544 44.9998 105.502 67.3609 105.502 67.3609" fill="white"/>
<path d="M86.7746 64.1044C86.7746 64.1044 85.9577 46.2268 94.7091 45.6162C103.544 44.9998 105.502 67.3609 105.502 67.3609" stroke="#001F3F" stroke-width="1.875" stroke-linecap="round" stroke-linejoin="round"/>
<path fill-rule="evenodd" clip-rule="evenodd" d="M38.1611 108.29C38.1611 108.29 64.3451 105.496 64.8669 109.711C65.3886 113.927 63.7358 114.803 68.0391 117.963C72.3445 121.121 81.1359 148.693 81.1359 148.693C81.1359 148.693 72.5977 168.909 71.5847 168.921C70.5717 168.931 41.4973 167.74 41.1069 167.567C37.2986 165.888 34.5051 110.847 34.5051 110.847L38.1611 108.29Z" fill="white"/>
<path fill-rule="evenodd" clip-rule="evenodd" d="M66.7086 140.163C66.7086 140.163 69.6142 140.163 67.731 147.115C67.0303 149.695 66.4115 152.303 66.1468 154.965C65.7583 158.891 65.7831 162.1 65.7203 162.455C65.6327 162.961 59.6327 165.385 59.6327 165.385C59.6327 165.385 60.8418 138.323 66.7086 140.163Z" fill="#4A4A4A" fill-opacity="0.04"/>
<path fill-rule="evenodd" clip-rule="evenodd" d="M38.2781 120.251C38.2781 120.251 34.0242 123.362 34.8582 126.863C35.7037 128.625 39.3788 130.351 42.6348 130.952C44.7674 131.345 46.9934 131.007 49.0213 130.235C59.5741 126.214 53.5456 126.63 52.3232 126.65C45.1978 126.768 38.2781 120.251 38.2781 120.251Z" fill="#4A4A4A" fill-opacity="0.04"/>
<path fill-rule="evenodd" clip-rule="evenodd" d="M27.9672 114.547C27.9672 114.547 18.9244 106.903 20.4953 103.049C21.9101 99.5821 30.3112 99.2749 31.3243 99.3829" fill="white"/>
<mask id="mask0_109_1369" style="mask-type:alpha" maskUnits="userSpaceOnUse" x="20" y="99" width="12" height="16">
<path d="M20.4953 103.051C18.9244 106.903 27.9672 114.546 27.9672 114.546L31.3243 99.3827C31.2252 99.3712 31.0557 99.3656 30.829 99.3656C28.7365 99.3656 21.7729 99.9232 20.4953 103.051Z" fill="white"/>
</mask>
<g mask="url(#mask0_109_1369)">
<path fill-rule="evenodd" clip-rule="evenodd" d="M29.4605 97.251C29.4605 97.251 23.7689 102.895 25.2331 111.028C26.6994 119.161 31.9949 117.15 32.4557 116.462C32.9165 115.773 33.3791 98.093 33.2269 97.6341C33.0707 97.1752 29.4605 97.251 29.4605 97.251Z" fill="#4A4A4A" fill-opacity="0.04"/>
</g>
<path d="M27.9672 114.547C27.9672 114.547 18.9244 106.903 20.4953 103.049C21.9101 99.5822 30.3112 99.275 31.3242 99.3831" stroke="#001F3F" stroke-width="1.875" stroke-linecap="round" stroke-linejoin="round"/>
<path fill-rule="evenodd" clip-rule="evenodd" d="M59.7315 96.5249C59.7315 96.5249 58.052 86.3837 54.1561 85.7313C50.6505 85.1433 46.2272 91.7265 45.8121 92.5913" fill="white"/>
<path d="M59.7315 96.5249C59.7315 96.5249 58.052 86.3837 54.1561 85.7313C50.6505 85.1433 46.2272 91.7265 45.8121 92.5913" stroke="#001F3F" stroke-width="1.875" stroke-linecap="round" stroke-linejoin="round"/>
<path fill-rule="evenodd" clip-rule="evenodd" d="M48.7919 140.811V173.583H34.945C33.4826 173.583 32.3763 172.268 32.6391 170.836C33.0581 168.539 34.4005 165.439 38.4658 164.164L37.2623 135.927" fill="white"/>
<mask id="mask1_109_1369" style="mask-type:alpha" maskUnits="userSpaceOnUse" x="32" y="135" width="17" height="39">
<path d="M38.4648 164.165C34.4015 165.439 33.0589 168.539 32.6381 170.836C32.3773 172.268 33.4817 173.583 34.9441 173.583H48.7929V140.811L37.2633 135.927L38.4648 164.165Z" fill="white"/>
</mask>
<g mask="url(#mask1_109_1369)">
<path fill-rule="evenodd" clip-rule="evenodd" d="M44.567 140.155C44.567 140.155 42.583 140.375 45.1992 141.805L44.8164 163.795C44.8164 163.795 39.8999 167.707 40.8578 172.609C41.8136 177.512 49.5674 173.647 49.5674 173.647L48.7923 140.811L44.567 140.155Z" fill="#4A4A4A" fill-opacity="0.04"/>
</g>
<path d="M48.7919 140.811V173.583H34.945C33.4826 173.583 32.3763 172.268 32.6391 170.836C33.0581 168.539 34.4005 165.439 38.4658 164.164L37.2623 135.927" stroke="#001F3F" stroke-width="1.875" stroke-linecap="round" stroke-linejoin="round"/>
<path fill-rule="evenodd" clip-rule="evenodd" d="M33.6964 124.537C32.3634 123.397 31.1829 121.886 30.1928 119.955C25.5237 110.828 29.1645 99.6629 38.3273 95.0105C47.4862 90.3581 58.6997 93.9864 63.3688 103.111C65.7622 107.788 66.0802 112.302 64.3265 115.955" fill="white"/>
<mask id="mask2_109_1369" style="mask-type:alpha" maskUnits="userSpaceOnUse" x="28" y="92" width="38" height="33">
<path d="M38.3259 95.0091C29.165 99.6615 25.5243 110.829 30.1933 119.955C31.1815 121.884 32.3641 123.398 33.6969 124.538L64.3251 115.954C66.0807 112.302 65.7627 107.787 63.3693 103.111C60.0789 96.6819 53.5438 92.9835 46.7651 92.9835C43.9222 92.9835 41.0337 93.634 38.3259 95.0091Z" fill="white"/>
</mask>
<g mask="url(#mask2_109_1369)">
<path fill-rule="evenodd" clip-rule="evenodd" d="M38.3267 95.0098C38.3267 95.0098 28.8154 110.251 37.0833 119.294C42.9251 125.684 50.359 126.355 50.359 126.355L25.6183 128.402L24.0455 110.676L35.3638 92.2769L38.3267 95.0098Z" fill="#4A4A4A" fill-opacity="0.04"/>
</g>
<path d="M33.6964 124.537C32.3634 123.397 31.1829 121.886 30.1928 119.955C25.5237 110.828 29.1645 99.6629 38.3273 95.0105C47.4862 90.3581 58.6997 93.9864 63.3688 103.111C65.7622 107.788 66.0802 112.302 64.3265 115.955" stroke="#001F3F" stroke-width="1.875" stroke-linecap="round" stroke-linejoin="round"/>
<path d="M38.6351 166.301L38.4905 164.468" stroke="#001F3F" stroke-width="1.875" stroke-linecap="round" stroke-linejoin="round"/>
<path fill-rule="evenodd" clip-rule="evenodd" d="M65.007 139.588C65.007 139.588 63.7998 138.493 60.7207 140.813C56.7867 143.781 57.2742 159.504 57.2742 159.504C57.2742 159.504 51.2305 158.992 48.7913 161.599C46.3539 164.204 49.4386 165.888 49.4386 165.888L60.7207 163.392L65.007 139.588Z" fill="#4A4A4A" fill-opacity="0.04"/>
<path fill-rule="evenodd" clip-rule="evenodd" d="M55.2929 139.793C51.4636 141.924 50.6772 148.645 50.542 149.121L49.4396 138.964" fill="#4A4A4A" fill-opacity="0.04"/>
<path d="M48.792 173.583V142.939" stroke="#001F3F" stroke-width="1.875" stroke-linecap="round" stroke-linejoin="round"/>
<path fill-rule="evenodd" clip-rule="evenodd" d="M66.2064 119.41C66.2064 119.41 92.6721 125.684 85.9372 173.581H44.4667C44.4667 173.581 45.0513 165.108 52.8031 163.759C59.1915 163.276 75.1273 163.909 75.1273 157.599" fill="white"/>
<mask id="mask3_109_1369" style="mask-type:alpha" maskUnits="userSpaceOnUse" x="44" y="119" width="44" height="55">
<path d="M75.1255 157.597C75.1255 163.909 59.1915 163.276 52.8031 163.757C45.0513 165.107 44.4667 173.583 44.4667 173.583H85.9372C92.6721 125.683 66.2064 119.411 66.2064 119.411" fill="white"/>
</mask>
<g mask="url(#mask3_109_1369)">
<path fill-rule="evenodd" clip-rule="evenodd" d="M66.8443 109.249L66.1703 114.01C64.4375 117.479 65.1915 121.65 68.0115 124.316C72.4348 128.498 77.1991 134.705 76.9972 141.769C76.6525 153.691 75.9595 160.153 75.9595 160.153C75.9595 160.153 72.4044 164.836 71.5837 168.921C52.7269 169.056 48.8024 171.489 52.5365 165.304C56.2705 159.116 44.4667 167.149 44.4667 167.149V177.636C44.4667 177.636 64.0643 180.523 69.1216 180.577C74.1828 180.633 88.6105 179.271 88.6105 179.271L93.35 147.132C93.35 147.132 85.3755 125.481 84.3587 123.846C83.3419 122.211 76.0947 112.134 73.3621 110.365C70.6259 108.593 66.8443 109.249 66.8443 109.249Z" fill="#4A4A4A" fill-opacity="0.04"/>
</g>
<path d="M66.2064 119.41C66.2064 119.41 92.6721 125.684 85.9372 173.581H44.4667C44.4667 173.581 45.0513 165.108 52.8031 163.759C59.1915 163.276 75.1273 163.909 75.1273 157.599" stroke="#001F3F" stroke-width="1.875" stroke-linecap="round" stroke-linejoin="round"/>
<path fill-rule="evenodd" clip-rule="evenodd" d="M98.6029 173.583H81.7797C80.3078 173.583 79.1958 172.375 79.1654 170.908C79.0512 165.385 82.2044 161.479 84.4704 160.405C85.1425 160.087 85.5748 159.417 85.5633 158.679L84.8893 117.892L83.8381 109.441C70.2806 106.031 55.8909 80.4187 80.563 66.4443C103.773 53.2969 119.907 78.9355 114.76 93.3896C113.813 96.0449 116.138 97.1165 118.547 98.5959C129.795 104.164 161.569 143.227 148.764 169.375" fill="#ECECEC"/>
<mask id="mask4_109_1369" style="mask-type:alpha" maskUnits="userSpaceOnUse" x="67" y="62" width="85" height="112">
<path d="M80.5636 66.444C55.8916 80.4183 70.2812 106.03 83.8388 109.44L84.888 117.89L85.5639 158.679C85.5735 159.419 85.1431 160.087 84.4709 160.404C82.2031 161.479 79.0517 165.385 79.166 170.908C79.1964 172.376 80.3065 173.583 81.7804 173.583H98.6016L148.763 169.373C161.569 143.227 129.793 104.166 118.548 98.5955C116.139 97.1161 113.814 96.0445 114.76 93.3893C118.911 81.7327 109.223 62.8063 93.1463 62.8063C89.2865 62.8063 85.0575 63.8987 80.5636 66.444Z" fill="white"/>
</mask>
<g mask="url(#mask4_109_1369)">
<path fill-rule="evenodd" clip-rule="evenodd" d="M133.909 143.433C125.493 143.964 118.216 149.203 116.513 157.923C115.403 150.639 115.104 150.639 115.104 150.639C115.104 150.639 116.628 142.972 124.25 141.688C128.285 141.009 132.183 140.333 134.149 140.961C135.069 141.257 135.497 143.295 133.909 143.433Z" fill="#4A4A4A" fill-opacity="0.04"/>
</g>
<path d="M98.6029 173.583H81.7797C80.3078 173.583 79.1958 172.375 79.1654 170.908C79.0512 165.385 82.2044 161.479 84.4704 160.405C85.1425 160.087 85.5748 159.417 85.5633 158.679L84.8893 117.892L83.8381 109.441C70.2806 106.031 55.8909 80.4187 80.563 66.4443C103.773 53.2969 119.907 78.9355 114.76 93.3896C113.813 96.0449 116.138 97.1165 118.547 98.5959C129.795 104.164 161.569 143.227 148.764 169.375" stroke="#001F3F" stroke-width="1.875" stroke-linecap="round" stroke-linejoin="round"/>
<path d="M133.095 140.535C126.88 139.637 121.859 142.28 118.705 145.521" stroke="#001F3F" stroke-width="1.875" stroke-linecap="round" stroke-linejoin="round"/>
<mask id="mask5_109_1369" style="mask-type:alpha" maskUnits="userSpaceOnUse" x="100" y="132" width="22" height="42">
<path d="M100.654 134.132V173.583H117.489C119.949 173.583 121.865 170.261 121.352 167.149C120.787 163.695 118.06 160.509 118.06 160.509C117.432 152.856 119.81 136.475 119.886 132.883L100.654 134.132Z" fill="white"/>
</mask>
<g mask="url(#mask5_109_1369)">
<path fill-rule="evenodd" clip-rule="evenodd" d="M116.071 172.869C116.071 172.869 117.6 167.84 115.332 166.259C114.007 165.331 111.894 165.816 109.197 165.483C106.747 165.179 105.275 162.327 106.758 160.36C107.162 159.825 107.743 159.455 108.569 159.423C109.715 159.379 110.629 159.341 111.332 159.315C112.383 159.269 113.196 158.408 113.175 157.359C113.063 151.417 113.276 133.461 120.112 135.181C118.808 140.82 114.577 157.332 117.044 162.057C119.512 166.781 121.843 172.693 121.843 172.693L120.392 175.041L116.071 172.869Z" fill="#4A4A4A" fill-opacity="0.04"/>
</g>
<path d="M119.887 132.883C119.809 136.475 117.431 152.856 118.059 160.508C118.059 160.508 120.788 163.696 121.353 167.148C121.863 170.261 119.948 173.583 117.49 173.583H100.655V134.133" stroke="#001F3F" stroke-width="1.875" stroke-linecap="round" stroke-linejoin="round"/>
<path d="M97.5616 133.244C97.5616 133.244 100.997 134.255 104.118 132.855" stroke="#001F3F" stroke-width="1.875" stroke-linecap="round" stroke-linejoin="round"/>
<path d="M113.343 160.527L118.06 160.603" stroke="#001F3F" stroke-width="1.875" stroke-linecap="round" stroke-linejoin="round"/>
<path fill-rule="evenodd" clip-rule="evenodd" d="M80.1566 70.2629C76.8643 72.7513 81.7027 81.4512 81.7027 81.4512C81.7027 81.4512 74.1205 99.6302 88.5119 99.029C90.5457 106.278 93.6818 111.099 93.6818 111.099L111.674 106.278L113.27 96.6829L102.517 90.1737C102.517 90.1737 109.85 78.003 92.4326 76.6849C87.8455 70.832 83.1537 67.9984 80.1566 70.2629Z" fill="white"/>
<path fill-rule="evenodd" clip-rule="evenodd" d="M101.716 81.4519C102.221 81.9015 102.651 82.404 103.009 82.937C104.978 85.8806 104.05 89.8939 101.032 91.7602C98.2008 93.507 93.8118 92.9644 89.7179 85.2604" fill="white"/>
<path fill-rule="evenodd" clip-rule="evenodd" d="M89.4745 85.6934C92.1822 88.9822 95.3774 93.1794 92.3231 96.9252C90.2114 99.516 86.285 99.6279 83.5222 97.7388C82.631 97.13 81.8561 96.3296 81.3229 95.3586" fill="white"/>
<path d="M101.716 81.4519C102.22 81.9015 102.651 82.404 103.009 82.937C104.978 85.8806 104.05 89.8939 101.032 91.7602C98.2008 93.507 93.8118 92.9644 89.7178 85.2604" stroke="#001F3F" stroke-width="1.875" stroke-linecap="round" stroke-linejoin="round"/>
<path d="M89.4743 85.6934C92.1821 88.9822 95.3773 93.1794 92.323 96.9252C90.2113 99.516 86.2849 99.6279 83.522 97.7388C82.6309 97.13 81.8558 96.3296 81.3228 95.3586" stroke="#001F3F" stroke-width="1.875" stroke-linecap="round" stroke-linejoin="round"/>
<path fill-rule="evenodd" clip-rule="evenodd" d="M93.5413 80.2704C94.4477 81.7744 93.4479 86.349 90.8526 87.6804C88.2573 89.0137 84.3214 87.8245 83.415 86.3205C82.5086 84.8147 84.0415 82.2428 86.8367 80.5718C89.6321 78.9009 92.633 78.7662 93.5413 80.2704Z" fill="#ECECEC"/>
<mask id="mask6_109_1369" style="mask-type:alpha" maskUnits="userSpaceOnUse" x="83" y="79" width="11" height="10">
<path d="M86.8377 80.5719C84.0405 82.2428 82.5077 84.8147 83.4141 86.3205C84.3224 87.8265 88.2564 89.0137 90.8536 87.6804C93.4489 86.3491 94.4467 81.7744 93.5423 80.2704C93.1176 79.5705 92.2417 79.2253 91.1431 79.2253C89.8825 79.2253 88.3307 79.6785 86.8377 80.5719Z" fill="white"/>
</mask>
<g mask="url(#mask6_109_1369)">
<path fill-rule="evenodd" clip-rule="evenodd" d="M84.504 85.9953C84.504 85.9953 88.4552 82.1337 92.3053 83.0688C96.1536 84.0038 92.8956 79.2244 92.8956 79.2244C92.8956 79.2244 88.9312 78.735 88.36 79.4007C87.7887 80.0663 83.7329 83.577 83.8243 84.3186C83.9137 85.0621 84.504 85.9953 84.504 85.9953Z" fill="#4A4A4A" fill-opacity="0.04"/>
</g>
<path fill-rule="evenodd" clip-rule="evenodd" d="M93.5413 80.2704C94.4477 81.7744 93.4479 86.349 90.8526 87.6804C88.2573 89.0137 84.3214 87.8245 83.415 86.3205C82.5086 84.8147 84.0415 82.2428 86.8367 80.5718C89.6321 78.9009 92.633 78.7662 93.5413 80.2704Z" stroke="#001F3F" stroke-width="1.875" stroke-linecap="round" stroke-linejoin="round"/>
<path d="M186.807 173.531L23.0806 173.583" stroke="#001F3F" stroke-width="1.875" stroke-linecap="round" stroke-linejoin="round"/>
<path d="M65.247 140.163C61.2063 145.173 60.7207 162.455 60.7207 162.455" stroke="#001F3F" stroke-width="1.875" stroke-linecap="round" stroke-linejoin="round"/>
<path d="M54.3129 140.155C48.1682 141.631 44.5674 140.155 44.5674 140.155" stroke="#001F3F" stroke-width="1.875" stroke-linecap="round" stroke-linejoin="round"/>
<path d="M95.4585 74.8712L96.1288 75.7588" stroke="#001F3F" stroke-width="1.5" stroke-linecap="round" stroke-linejoin="round"/>
<path d="M77.9232 85.8805L78.5935 86.7681" stroke="#001F3F" stroke-width="1.5" stroke-linecap="round" stroke-linejoin="round"/>
<path d="M52.4216 104.13L52.9472 104.828" stroke="#001F3F" stroke-width="1.5" stroke-linecap="round" stroke-linejoin="round"/>
<path d="M38.8286 113.161L39.3542 113.857" stroke="#001F3F" stroke-width="1.5" stroke-linecap="round" stroke-linejoin="round"/>
<path fill-rule="evenodd" clip-rule="evenodd" d="M44.318 112.817C45.4547 113.063 46.8848 111.578 46.4753 109.975L44.318 112.817Z" fill="white"/>
<path d="M44.318 112.817C45.4547 113.063 46.8848 111.578 46.4753 109.975" stroke="#001F3F" stroke-width="1.5" stroke-linecap="round" stroke-linejoin="round"/>
<path fill-rule="evenodd" clip-rule="evenodd" d="M49.9654 109.205C49.7178 110.337 47.7679 111.012 46.4751 109.975L49.9654 109.205Z" fill="white"/>
<path d="M49.9654 109.205C49.7178 110.337 47.7679 111.012 46.4751 109.975" stroke="#001F3F" stroke-width="1.5" stroke-linecap="round" stroke-linejoin="round"/>
<path fill-rule="evenodd" clip-rule="evenodd" d="M97.2846 109.981C93.1222 110.88 88.5788 110.637 83.8375 109.44C81.7258 108.907 84.8886 117.892 84.8886 117.892C101.487 123.737 120.157 108.17 118.546 98.5956C118.28 97.01 116.941 96.4466 114.761 93.3893C112.164 99.8814 108.584 104.346 104.32 107.089" fill="#F7F7F7"/>
<path d="M97.2846 109.981C93.1222 110.88 88.5788 110.637 83.8375 109.44C81.7258 108.907 84.8886 117.892 84.8886 117.892C101.487 123.737 120.157 108.17 118.546 98.5956C118.28 97.01 116.941 96.4466 114.761 93.3893C112.164 99.8814 108.584 104.346 104.32 107.089" stroke="#001F3F" stroke-width="1.875" stroke-linecap="round" stroke-linejoin="round"/>
<path fill-rule="evenodd" clip-rule="evenodd" d="M93.6808 52.9858C93.6808 52.9858 95.7544 53.13 96.1276 56.7961L96.4171 59.6392" fill="#F7F7F7"/>
<path d="M93.6808 52.9858C93.6808 52.9858 95.7544 53.13 96.1276 56.7961L96.4171 59.6392" stroke="#001F3F" stroke-width="1.875" stroke-linecap="round" stroke-linejoin="round"/>
<path d="M44.8666 109.092L46.2508 108.126" stroke="#001F3F" stroke-width="1.5" stroke-linecap="round" stroke-linejoin="round"/>
<path fill-rule="evenodd" clip-rule="evenodd" d="M45.7964 129.169C43.0868 129.13 40.1202 128.454 36.9211 126.873C36.9211 126.873 36.329 131.688 38.1494 132.775C47.1559 138.152 64.2704 132.369 67.1534 120.252C66.9115 118.875 65.8832 117.242 65.015 116.426C64.6132 116.051 64.5066 115.436 64.3256 115.954C63.5126 118.319 59.809 123.927 54.7535 126.81" fill="#F7F7F7"/>
<path d="M45.7964 129.169C43.0868 129.13 40.1202 128.454 36.9211 126.873C36.9211 126.873 36.329 131.688 38.1494 132.775C47.1559 138.152 64.2704 132.369 67.1534 120.252C66.9115 118.875 65.8832 117.242 65.015 116.426C64.6132 116.051 64.5066 115.436 64.3256 115.954C63.5126 118.319 59.809 123.927 54.7535 126.81" stroke="#001F3F" stroke-width="1.875" stroke-linecap="round" stroke-linejoin="round"/>
<path fill-rule="evenodd" clip-rule="evenodd" d="M50.9787 128.442C50.6702 128.536 50.3542 128.622 50.0342 128.7L50.9787 128.442Z" fill="#F7F7F7"/>
<path d="M50.9787 128.442C50.6702 128.536 50.3542 128.622 50.0342 128.7" stroke="#001F3F" stroke-width="1.875" stroke-linecap="round" stroke-linejoin="round"/>
<path d="M18.0465 173.583H12" stroke="#001F3F" stroke-width="1.875" stroke-linecap="round" stroke-linejoin="round"/>
</svg>
