<svg width="452" height="422" viewBox="0 0 452 422" fill="none" xmlns="http://www.w3.org/2000/svg">
<g clip-path="url(#clip0_109_1545)">
<rect width="452" height="422" fill="#F7F7F7"/>
<mask id="mask0_109_1545" style="mask-type:luminance" maskUnits="userSpaceOnUse" x="0" y="0" width="452" height="422">
<path d="M452 0H0V422H452V0Z" fill="white"/>
</mask>
<g mask="url(#mask0_109_1545)">
<path d="M450.819 460.017V562.24C450.819 584.473 432.731 602.56 410.497 602.56H218.322C196.088 602.56 178 584.473 178 562.24V117.322C178 95.0887 196.088 77 218.322 77H410.497C432.731 77 450.819 95.0887 450.819 117.322V447.794" fill="#F7F7F7"/>
<path d="M450.819 460.017V562.24C450.819 584.473 432.731 602.56 410.497 602.56H218.322C196.088 602.56 178 584.473 178 562.24V117.322C178 95.0887 196.088 77 218.322 77H410.497C432.731 77 450.819 95.0887 450.819 117.322V447.794" fill="#F7F7F7"/>
<path d="M450.819 460.017V562.24C450.819 584.473 432.731 602.56 410.497 602.56H218.322C196.088 602.56 178 584.473 178 562.24V117.322C178 95.0887 196.088 77 218.322 77H410.497C432.731 77 450.819 95.0887 450.819 117.322V447.794" stroke="#4A4A4A" stroke-width="2" stroke-linecap="round" stroke-linejoin="round"/>
<path d="M190.991 176.427V117.321C190.991 102.228 203.227 89.9917 218.321 89.9917H251.874C256.872 89.9917 260.993 93.9139 261.237 98.9061C261.654 106.721 268.113 112.845 275.94 112.845H352.879C360.706 112.845 367.165 106.721 367.581 98.9061C367.827 93.9139 371.947 89.9917 376.944 89.9917H410.499C425.592 89.9917 437.828 102.228 437.828 117.321V562.241C437.828 577.334 425.592 589.569 410.499 589.569H218.321C203.227 589.569 190.991 577.334 190.991 562.241V181.92" fill="white"/>
<path d="M190.987 176.431V117.325C190.987 102.233 203.222 89.9958 218.316 89.9958H251.869C256.867 89.9958 260.988 93.918 261.232 98.9103C261.649 106.725 268.108 112.849 275.935 112.849H352.875C360.701 112.849 367.161 106.725 367.576 98.9103C367.822 93.918 371.943 89.9958 376.94 89.9958H410.494C425.588 89.9958 437.823 102.233 437.823 117.325V562.246C437.823 577.338 425.588 589.574 410.494 589.574H218.316C203.222 589.574 190.987 577.338 190.987 562.246V181.924" fill="white"/>
<path d="M190.987 176.431V117.325C190.987 102.233 203.222 89.9958 218.316 89.9958H251.869C256.867 89.9958 260.988 93.918 261.232 98.9103C261.649 106.725 268.108 112.849 275.935 112.849H352.875C360.701 112.849 367.161 106.725 367.576 98.9103C367.822 93.918 371.943 89.9958 376.94 89.9958H410.494C425.588 89.9958 437.823 102.233 437.823 117.325V562.246C437.823 577.338 425.588 589.574 410.494 589.574H218.316C203.222 589.574 190.987 577.338 190.987 562.246V181.924" stroke="#4A4A4A" stroke-width="2" stroke-linecap="round" stroke-linejoin="round"/>
<path d="M190.993 225.979V223.123Z" fill="black"/>
<path d="M190.993 225.979V223.123" stroke="#4A4A4A" stroke-width="2" stroke-linecap="round" stroke-linejoin="round"/>
<path d="M325.37 99.71H286.443C284.756 99.71 283.39 98.3435 283.39 96.657C283.39 94.9717 284.756 93.604 286.443 93.604H325.37C327.056 93.604 328.423 94.9717 328.423 96.657C328.423 98.3435 327.056 99.71 325.37 99.71Z" fill="#ECECEC"/>
<path d="M340.705 101.381C338.096 101.381 335.981 99.2671 335.981 96.657C335.981 94.0481 338.096 91.9329 340.705 91.9329C343.314 91.9329 345.429 94.0481 345.429 96.657C345.429 99.2671 343.314 101.381 340.705 101.381Z" fill="#ECECEC"/>
<path d="M373.007 235.6C373.007 267.964 346.718 294.2 314.29 294.2C281.861 294.2 255.572 267.964 255.572 235.6C255.572 203.236 281.861 177 314.29 177C346.718 177 373.007 203.236 373.007 235.6Z" fill="#ECECEC"/>
<path d="M322.505 217.218C322.505 217.218 317.127 215.031 311.738 215.062C306.984 215.095 302.231 216.859 301.151 223.378C301.151 223.378 299.742 229.538 307.503 233.236C315.263 236.934 323.733 239.407 320.557 249.613C320.557 249.613 315.624 261.595 298.155 252.783" fill="black"/>
<path d="M322.505 217.218C322.505 217.218 317.127 215.031 311.738 215.062C306.984 215.095 302.231 216.859 301.151 223.378C301.151 223.378 299.742 229.538 307.503 233.236C315.263 236.934 323.733 239.407 320.557 249.613C320.557 249.613 315.624 261.595 298.155 252.783" stroke="#4A4A4A" stroke-width="3" stroke-linecap="round" stroke-linejoin="round"/>
<path d="M310.793 205.944V215.062Z" fill="black"/>
<path d="M310.793 205.944V215.062" stroke="#4A4A4A" stroke-width="3" stroke-linecap="round" stroke-linejoin="round"/>
<path d="M310.793 255.879V265.779Z" fill="black"/>
<path d="M310.793 255.879V265.779" stroke="#4A4A4A" stroke-width="3" stroke-linecap="round" stroke-linejoin="round"/>
<path d="M382.793 352.8H245.786C240.404 352.8 236 348.405 236 343.033C236 337.661 240.404 333.266 245.786 333.266H382.793C388.176 333.266 392.579 337.661 392.579 343.033C392.579 348.405 388.176 352.8 382.793 352.8Z" fill="#ECECEC"/>
<path d="M343.648 391.866H284.931C279.549 391.866 275.145 387.471 275.145 382.1C275.145 376.728 279.549 372.333 284.931 372.333H343.648C349.031 372.333 353.434 376.728 353.434 382.1C353.434 387.471 349.031 391.866 343.648 391.866Z" fill="#ECECEC"/>
<path d="M273.819 384.017V486.24C273.819 508.473 255.731 526.56 233.497 526.56H41.3217C19.0875 526.56 1 508.473 1 486.24V41.3217C1 19.0887 19.0875 1 41.3217 1H233.497C255.731 1 273.819 19.0887 273.819 41.3217V371.794" fill="#F7F7F7"/>
<path d="M273.819 384.017V486.24C273.819 508.473 255.731 526.56 233.497 526.56H41.3217C19.0875 526.56 1 508.473 1 486.24V41.3217C1 19.0887 19.0875 1 41.3217 1H233.497C255.731 1 273.819 19.0887 273.819 41.3217V371.794" fill="#F7F7F7"/>
<path d="M273.819 384.017V486.24C273.819 508.473 255.731 526.56 233.497 526.56H41.3217C19.0875 526.56 1 508.473 1 486.24V41.3217C1 19.0887 19.0875 1 41.3217 1H233.497C255.731 1 273.819 19.0887 273.819 41.3217V371.794" stroke="#4A4A4A" stroke-width="2" stroke-linecap="round" stroke-linejoin="round"/>
<path d="M273.819 377.287V378.99Z" fill="black"/>
<path d="M273.819 377.287V378.99" stroke="#4A4A4A" stroke-width="2" stroke-linecap="round" stroke-linejoin="round"/>
<path d="M13.9915 100.427V41.3208C13.9915 26.2284 26.227 13.9917 41.3206 13.9917H74.8738C79.8719 13.9917 83.9925 17.9139 84.237 22.9061C84.6539 30.721 91.113 36.8447 98.9397 36.8447H175.879C183.706 36.8447 190.165 30.721 190.581 22.9061C190.827 17.9139 194.947 13.9917 199.944 13.9917H233.499C248.592 13.9917 260.828 26.2284 260.828 41.3208V486.241C260.828 501.334 248.592 513.569 233.499 513.569H41.3206C26.227 513.569 13.9915 501.334 13.9915 486.241V105.92" fill="white"/>
<path d="M13.9868 100.431V41.325C13.9868 26.2326 26.2223 13.9958 41.316 13.9958H74.8691C79.8673 13.9958 83.9879 17.918 84.2324 22.9103C84.6493 30.7252 91.1084 36.8489 98.9351 36.8489H175.875C183.701 36.8489 190.161 30.7252 190.576 22.9103C190.822 17.918 194.943 13.9958 199.94 13.9958H233.494C248.588 13.9958 260.823 26.2326 260.823 41.325V486.246C260.823 501.338 248.588 513.574 233.494 513.574H41.316C26.2223 513.574 13.9868 501.338 13.9868 486.246V105.924" fill="white"/>
<path d="M13.9868 100.431V41.325C13.9868 26.2326 26.2223 13.9958 41.316 13.9958H74.8691C79.8673 13.9958 83.9879 17.918 84.2324 22.9103C84.6493 30.7252 91.1084 36.8489 98.9351 36.8489H175.875C183.701 36.8489 190.161 30.7252 190.576 22.9103C190.822 17.918 194.943 13.9958 199.94 13.9958H233.494C248.588 13.9958 260.823 26.2326 260.823 41.325V486.246C260.823 501.338 248.588 513.574 233.494 513.574H41.316C26.2223 513.574 13.9868 501.338 13.9868 486.246V105.924" stroke="#4A4A4A" stroke-width="2" stroke-linecap="round" stroke-linejoin="round"/>
<path d="M13.9927 149.979V147.123Z" fill="black"/>
<path d="M13.9927 149.979V147.123" stroke="#4A4A4A" stroke-width="2" stroke-linecap="round" stroke-linejoin="round"/>
<path d="M148.37 23.71H109.443C107.756 23.71 106.39 22.3435 106.39 20.657C106.39 18.9717 107.756 17.604 109.443 17.604H148.37C150.056 17.604 151.423 18.9717 151.423 20.657C151.423 22.3435 150.056 23.71 148.37 23.71Z" fill="#ECECEC"/>
<path d="M163.705 25.3811C161.096 25.3811 158.981 23.2671 158.981 20.657C158.981 18.0481 161.096 15.9329 163.705 15.9329C166.314 15.9329 168.429 18.0481 168.429 20.657C168.429 23.2671 166.314 25.3811 163.705 25.3811Z" fill="#ECECEC"/>
<path opacity="0.031342" d="M275 428H295V77.0005H275V428Z" fill="black"/>
<path d="M56.3942 223.502C53.326 223.502 50.4035 224.126 47.7458 225.253C39.7832 228.596 34.0934 236.419 33.9391 245.519C33.8997 247.852 34.2172 250.105 34.8412 252.227C34.8412 252.227 35.9572 255.64 33.8175 260.286C32.78 262.539 31.4208 264.351 30.3027 265.615C29.5757 266.438 30.2093 267.731 31.3056 267.663C32.8886 267.563 34.8661 267.289 36.7016 266.605C39.0302 265.738 40.618 264.621 41.4651 263.924C41.9043 263.562 42.5301 263.543 42.9868 263.883C45.5426 265.781 48.5189 267.144 51.7485 267.818C52.1568 267.903 52.3048 267.927 52.4521 267.953C53.7324 268.183 55.048 268.309 56.3942 268.309H97.4724C109.721 268.309 119.65 258.379 119.65 246.129V245.683C119.65 233.433 109.721 223.502 97.4724 223.502H56.3942Z" fill="#FF7262"/>
<mask id="mask1_109_1545" style="mask-type:alpha" maskUnits="userSpaceOnUse" x="55" y="238" width="14" height="15">
<path d="M56.5674 238.538L68.0825 239.51L66.9886 252.477L55.4735 251.505L56.5674 238.538Z" fill="white"/>
</mask>
<g mask="url(#mask1_109_1545)">
<path d="M65.0694 245.785C65.1294 245.073 65.0866 244.427 64.944 243.845C64.8002 243.265 64.5686 242.763 64.2488 242.343C63.9292 241.92 63.525 241.584 63.0386 241.331C62.55 241.079 61.9888 240.928 61.356 240.874L58.835 240.661L58.0648 249.791L60.5859 250.004C61.2186 250.057 61.7974 250.001 62.3213 249.834C62.8431 249.667 63.298 249.403 63.6838 249.041C64.0695 248.68 64.382 248.224 64.6209 247.675C64.8589 247.126 65.0094 246.496 65.0694 245.785ZM67.5356 245.993C67.4554 246.943 67.2224 247.803 66.8394 248.571C66.4555 249.34 65.9513 249.987 65.329 250.511C64.7075 251.038 63.9794 251.425 63.1456 251.674C62.3117 251.923 61.4045 252.006 60.424 251.923L55.4736 251.505L56.5675 238.537L61.5179 238.955C62.4984 239.038 63.3788 239.273 64.1589 239.661C64.9391 240.048 65.5921 240.552 66.1169 241.171C66.6426 241.792 67.0314 242.512 67.2812 243.334C67.53 244.156 67.6158 245.042 67.5356 245.993Z" fill="white"/>
</g>
<path d="M73.2705 250.439C74.0395 250.439 74.6075 250.181 74.9765 249.666C75.3455 249.149 75.5305 248.393 75.5305 247.397C75.5305 246.401 75.3455 245.642 74.9765 245.121C74.6075 244.598 74.0395 244.337 73.2705 244.337C72.4915 244.337 71.9155 244.6 71.5425 245.125C71.1705 245.65 70.9855 246.407 70.9855 247.397C70.9855 248.387 71.1705 249.142 71.5425 249.661C71.9155 250.18 72.4915 250.439 73.2705 250.439ZM73.2705 242.636C73.9605 242.636 74.5855 242.748 75.1475 242.969C75.7085 243.191 76.1865 243.506 76.5835 243.915C76.9785 244.322 77.2855 244.82 77.5005 245.408C77.7165 245.997 77.8255 246.653 77.8255 247.379C77.8255 248.111 77.7165 248.771 77.5005 249.359C77.2855 249.947 76.9785 250.448 76.5835 250.862C76.1865 251.276 75.7085 251.594 75.1475 251.816C74.5855 252.038 73.9605 252.149 73.2705 252.149C72.5815 252.149 71.9545 252.038 71.3895 251.816C70.8265 251.594 70.3445 251.276 69.9455 250.862C69.5455 250.448 69.2375 249.947 69.0185 249.359C68.7985 248.771 68.6895 248.111 68.6895 247.379C68.6895 246.653 68.7985 245.997 69.0185 245.408C69.2375 244.82 69.5455 244.322 69.9455 243.915C70.3445 243.506 70.8265 243.191 71.3895 242.969C71.9545 242.748 72.5815 242.636 73.2705 242.636Z" fill="white"/>
<path d="M79.5614 252.014V242.78H80.9204C81.2084 242.78 81.3974 242.915 81.4874 243.185L81.6404 243.914C81.8274 243.722 82.0234 243.548 82.2304 243.392C82.4374 243.236 82.6564 243.101 82.8874 242.987C83.1184 242.873 83.3654 242.786 83.6294 242.726C83.8934 242.666 84.1814 242.636 84.4944 242.636C84.9984 242.636 85.4444 242.721 85.8344 242.893C86.2244 243.064 86.5494 243.303 86.8114 243.613C87.0724 243.921 87.2704 244.29 87.4054 244.719C87.5404 245.149 87.6074 245.621 87.6074 246.137V252.014H85.3844V246.137C85.3844 245.574 85.2534 245.137 84.9934 244.827C84.7324 244.519 84.3404 244.364 83.8184 244.364C83.4344 244.364 83.0754 244.452 82.7394 244.625C82.4024 244.799 82.0844 245.036 81.7854 245.336V252.014H79.5614Z" fill="white"/>
<mask id="mask2_109_1545" style="mask-type:alpha" maskUnits="userSpaceOnUse" x="89" y="242" width="9" height="11">
<path d="M89.1742 242.636H97.6062V252.149H89.1742V242.636Z" fill="white"/>
</mask>
<g mask="url(#mask2_109_1545)">
<path d="M93.6552 244.229C93.0082 244.229 92.5012 244.413 92.1342 244.778C91.7682 245.144 91.5342 245.664 91.4322 246.335H95.6082C95.6082 246.047 95.5692 245.776 95.4912 245.521C95.4142 245.266 95.2942 245.042 95.1322 244.85C94.9692 244.659 94.7652 244.506 94.5192 244.396C94.2732 244.285 93.9852 244.229 93.6552 244.229ZM93.6102 242.636C94.1922 242.636 94.7282 242.729 95.2172 242.916C95.7062 243.101 96.1282 243.373 96.4812 243.73C96.8362 244.086 97.1112 244.525 97.3092 245.043C97.5082 245.563 97.6062 246.155 97.6062 246.821C97.6062 246.989 97.5982 247.128 97.5842 247.24C97.5692 247.351 97.5422 247.438 97.5032 247.5C97.4642 247.564 97.4122 247.609 97.3452 247.635C97.2792 247.663 97.1952 247.676 97.0932 247.676H91.3872C91.4542 248.625 91.7092 249.32 92.1522 249.764C92.5962 250.208 93.1842 250.43 93.9172 250.43C94.2762 250.43 94.5872 250.388 94.8482 250.304C95.1092 250.22 95.3372 250.127 95.5322 250.025C95.7272 249.923 95.8982 249.831 96.0452 249.747C96.1922 249.663 96.3352 249.621 96.4722 249.621C96.5622 249.621 96.6402 249.638 96.7072 249.674C96.7722 249.71 96.8302 249.761 96.8782 249.828L97.5252 250.637C97.2792 250.925 97.0042 251.166 96.6972 251.362C96.3912 251.557 96.0722 251.712 95.7392 251.83C95.4062 251.947 95.0672 252.029 94.7222 252.078C94.3772 252.125 94.0432 252.149 93.7182 252.149C93.0762 252.149 92.4792 252.042 91.9272 251.83C91.3762 251.617 90.8952 251.301 90.4872 250.884C90.0802 250.467 89.7592 249.952 89.5242 249.336C89.2912 248.722 89.1742 248.009 89.1742 247.199C89.1742 246.569 89.2752 245.977 89.4792 245.421C89.6832 244.867 89.9762 244.383 90.3572 243.973C90.7382 243.562 91.2032 243.236 91.7522 242.997C92.3012 242.756 92.9212 242.636 93.6102 242.636Z" fill="white"/>
</g>
<mask id="mask3_109_1545" style="mask-type:alpha" maskUnits="userSpaceOnUse" x="98" y="249" width="4" height="4">
<path d="M98.8846 249.431H101.611V252.14H98.8846V249.431Z" fill="white"/>
</mask>
<g mask="url(#mask3_109_1545)">
<path d="M98.8846 250.79C98.8846 250.603 98.9186 250.427 98.9886 250.259C99.0566 250.091 99.1526 249.946 99.2756 249.827C99.3986 249.707 99.5436 249.61 99.7116 249.539C99.8796 249.467 100.061 249.431 100.252 249.431C100.439 249.431 100.615 249.467 100.783 249.539C100.951 249.61 101.095 249.707 101.215 249.827C101.335 249.946 101.432 250.091 101.503 250.259C101.575 250.427 101.612 250.603 101.612 250.79C101.612 250.981 101.575 251.16 101.503 251.325C101.432 251.49 101.335 251.633 101.215 251.753C101.095 251.873 100.951 251.967 100.783 252.036C100.615 252.105 100.439 252.14 100.252 252.14C100.061 252.14 99.8796 252.105 99.7116 252.036C99.5436 251.967 99.3986 251.873 99.2756 251.753C99.1526 251.633 99.0566 251.49 98.9886 251.325C98.9186 251.16 98.8846 250.981 98.8846 250.79Z" fill="white"/>
</g>
<path d="M56.3942 103.992C53.326 103.992 50.4035 104.615 47.7458 105.742C39.7832 109.086 34.0934 116.908 33.9391 126.009C33.8997 128.342 34.2172 130.594 34.8412 132.716C34.8412 132.716 35.9572 136.129 33.8175 140.775C32.78 143.028 31.4208 144.84 30.3027 146.105C29.5757 146.927 30.2093 148.22 31.3056 148.152C32.8886 148.053 34.8661 147.778 36.7016 147.094C39.0302 146.227 40.618 145.111 41.4651 144.413C41.9043 144.051 42.5301 144.032 42.9868 144.372C45.5426 146.27 48.5189 147.634 51.7485 148.307C52.1568 148.392 52.3048 148.416 52.4521 148.442C53.7324 148.672 55.048 148.798 56.3942 148.798H147.472C159.721 148.798 169.65 138.868 169.65 126.618V126.172C169.65 113.922 159.721 103.992 147.472 103.992H56.3942Z" fill="#ECECEC"/>
<path d="M218.247 166.992C221.316 166.992 224.238 167.615 226.896 168.742C234.858 172.086 240.548 179.908 240.702 189.009C240.742 191.342 240.424 193.594 239.8 195.716C239.8 195.716 238.684 199.129 240.824 203.775C241.861 206.028 243.221 207.84 244.339 209.105C245.066 209.927 244.432 211.22 243.336 211.152C241.753 211.053 239.775 210.778 237.94 210.094C235.611 209.227 234.023 208.111 233.176 207.413C232.737 207.051 232.111 207.032 231.655 207.372C229.099 209.27 226.123 210.634 222.893 211.307C222.485 211.392 222.337 211.416 222.189 211.442C220.909 211.672 219.593 211.798 218.247 211.798H157.169C144.921 211.798 134.991 201.868 134.991 189.618V189.172C134.991 176.922 144.921 166.992 157.169 166.992H218.247Z" fill="#ECECEC"/>
</g>
</g>
<defs>
<clipPath id="clip0_109_1545">
<rect width="452" height="422" fill="white"/>
</clipPath>
</defs>
</svg>
