<svg width="473" height="503" viewBox="0 0 473 503" fill="none" xmlns="http://www.w3.org/2000/svg">
<g clip-path="url(#clip0_94_907)">
<path d="M153.137 220.307C153.137 220.307 163.662 229.903 164.597 235.313L155.44 239.966L144.872 223.627L139.298 201.817C138.775 201.354 138.399 200.778 138.21 200.146C138.02 199.514 138.024 198.849 138.22 198.219C138.416 197.589 138.797 197.016 139.326 196.557C139.854 196.099 140.51 195.773 141.228 195.611C141.946 195.449 142.699 195.457 143.412 195.635C144.125 195.813 144.772 196.154 145.287 196.624C145.802 197.094 146.167 197.675 146.345 198.31C146.523 198.944 146.507 199.609 146.3 200.236L153.137 220.307Z" fill="#FFB6B6"/>
<path d="M250.759 197.298C250.578 196.665 250.59 196 250.795 195.372C250.999 194.744 251.389 194.174 251.923 193.722C252.457 193.269 253.118 192.949 253.838 192.795C254.558 192.64 255.311 192.656 256.021 192.842C256.732 193.027 257.374 193.375 257.883 193.85C258.391 194.325 258.749 194.911 258.918 195.547C259.087 196.183 259.063 196.848 258.847 197.473C258.631 198.098 258.231 198.662 257.689 199.107L251.202 220.72L239.954 236.701L231 231.752C232.161 226.377 243.082 217.132 243.082 217.132L250.759 197.298Z" fill="#FFB6B6"/>
<path d="M83.9661 275.691C83.9002 262.953 89.4415 250.948 95.6008 239.652C101.965 227.981 109.211 216.53 112.807 203.875C114.908 196.907 115.418 189.639 114.31 182.495C114.093 181.222 111.899 181.763 112.115 183.029C114.321 195.955 109.553 208.828 103.617 220.485C97.7302 232.045 90.3914 243.042 85.7985 255.097C83.1567 261.716 81.7686 268.674 81.6897 275.691C81.6999 275.951 81.8243 276.198 82.0367 276.379C82.249 276.56 82.5327 276.661 82.8279 276.661C83.1231 276.661 83.4068 276.56 83.6191 276.379C83.8315 276.198 83.9559 275.951 83.9661 275.691Z" fill="#E6E6E6"/>
<path d="M150.124 279.965C149.638 274.543 153.977 270.019 159.098 267.53C165.597 264.371 173.463 264.643 180.646 264.83C188.014 265.09 195.394 264.78 202.701 263.905C219.957 261.693 236.377 255.916 250.623 247.045C264.869 238.174 276.538 226.46 284.681 212.856C291.435 201.574 296.191 188.565 294.292 175.68C294.062 174.113 293.735 172.559 293.312 171.024C292.965 169.769 290.77 170.3 291.117 171.558C294.654 184.358 290.599 197.766 284.171 209.321C278.262 219.914 270.202 229.462 260.391 237.491C250.116 245.899 238.078 252.456 224.954 256.794C218.138 259.042 211.088 260.693 203.906 261.723C196.626 262.716 189.255 263.095 181.894 262.855C174.575 262.667 166.819 262.326 159.94 264.939C154.557 266.984 149.56 271.035 148.173 276.213C147.845 277.441 147.735 278.707 147.848 279.965C147.963 281.245 150.24 281.256 150.124 279.965Z" fill="#E6E6E6"/>
<path d="M381.97 94.3288C379.292 93.2644 376.659 92.2402 374.14 91.2963C373.76 91.1557 373.381 91.0084 373.001 90.8678L372.956 90.8478C370.687 89.9909 368.413 89.1518 366.134 88.3307C364.541 87.7549 362.955 87.1859 361.361 86.6303C360.739 86.4027 360.117 86.1885 359.487 85.9742C358.478 85.6194 357.461 85.2713 356.452 84.9232C355.617 84.6354 354.775 84.3542 353.94 84.073C352.977 83.745 352.013 83.4304 351.057 83.109C349.919 82.7341 348.783 82.3637 347.65 81.9978C347.638 81.9923 347.625 81.99 347.612 81.9911C346.754 81.7099 345.897 81.4354 345.047 81.1677C333.506 77.4991 321.797 74.2189 310.233 71.4139C309.816 71.3135 309.399 71.2131 308.981 71.1127C308.26 70.9386 307.54 70.7646 306.819 70.5905C305.544 70.2892 304.264 69.9947 302.979 69.7068C301.773 69.4257 300.559 69.1579 299.345 68.8901C298.275 68.6558 297.205 68.4215 296.127 68.1939C295.073 67.9663 294.018 67.7454 292.955 67.5312C289.791 66.8751 286.632 66.2547 283.478 65.6701C283.456 65.6646 283.433 65.6623 283.41 65.6634C282.651 65.5161 281.9 65.3756 281.141 65.2417C269.622 63.1597 257.906 61.4861 246.32 60.261C245.75 60.2008 245.181 60.1405 244.612 60.087H244.597C244.498 60.0736 244.392 60.0669 244.294 60.0602C243.337 59.9598 242.381 59.8661 241.425 59.779C240.166 59.6585 238.914 59.5447 237.654 59.4376C234.672 59.1766 231.695 58.9489 228.723 58.7548C227.972 58.7012 227.228 58.6544 226.485 58.6142C225.627 58.554 224.77 58.5071 223.92 58.4602C223.04 58.4067 222.159 58.3598 221.279 58.3197C220.945 58.2996 220.619 58.2862 220.293 58.2728C219.883 58.246 219.466 58.2326 219.056 58.2126C218.441 58.1858 217.827 58.159 217.212 58.1322C205.648 57.6435 193.94 57.6034 182.406 58.0117C181.768 58.0318 181.131 58.0586 180.486 58.0854H180.463C180 58.1054 179.538 58.1188 179.067 58.1389C178.9 58.1456 178.726 58.1523 178.559 58.159C177.413 58.2126 176.267 58.2661 175.121 58.3264C173.9 58.3866 172.686 58.4536 171.471 58.5272C170.705 58.5741 169.946 58.6209 169.187 58.6678C168.687 58.7012 168.186 58.7347 167.677 58.7682C164.506 58.9824 161.334 59.2301 158.185 59.5113C157.13 59.605 156.083 59.6987 155.036 59.7991C154.452 59.8527 153.875 59.9062 153.298 59.9665C141.734 61.1179 130.018 62.7447 118.484 64.7932C117.726 64.927 116.959 65.0676 116.193 65.2082C116.178 65.2082 116.162 65.2149 116.147 65.2149C116.033 65.235 115.912 65.2551 115.798 65.2818C115.009 65.4224 114.212 65.5697 113.423 65.7237C112.551 65.8843 111.686 66.0517 110.813 66.2191C110.084 66.3596 109.356 66.5069 108.628 66.6542C106.913 66.9956 105.19 67.3437 103.475 67.7119C99.9848 68.4483 96.4969 69.2271 93.0115 70.0483C92.2223 70.2357 91.4256 70.4231 90.6288 70.6173C90.623 70.6178 90.6176 70.6202 90.6137 70.624C90.2039 70.7177 89.7866 70.8181 89.3768 70.9185C77.843 73.7168 66.1348 77.0238 54.5706 80.7593C53.7208 81.0338 52.8709 81.3082 52.0135 81.5961C51.9925 81.5974 51.9719 81.6019 51.9528 81.6095C49.6536 82.366 47.3418 83.1425 45.0173 83.9391C44.1751 84.2337 43.3252 84.5282 42.4753 84.8228C41.6558 85.1107 40.8287 85.3985 40.0092 85.6931C39.2884 85.9475 38.5751 86.2018 37.8543 86.4629C37.2776 86.6705 36.7084 86.878 36.1318 87.0855C34.1589 87.8085 32.1885 88.5404 30.2207 89.2813C29.0294 89.7365 27.8305 90.1917 26.6392 90.6536C26.2522 90.8009 25.8576 90.9482 25.4706 91.1021C22.6024 92.2201 19.9921 93.2577 17.488 94.282C14.8212 95.3701 12.562 97.1073 10.9758 99.2893C9.38969 101.471 8.54261 104.008 8.53418 106.6V130.224C8.53416 132.329 9.09001 134.405 10.1577 136.287C11.2253 138.169 12.7754 139.806 14.6849 141.068C16.5944 142.33 18.8109 143.181 21.1586 143.556C23.5063 143.93 25.9205 143.817 28.2099 143.225C29.3405 142.93 30.4711 142.636 31.6093 142.341C32.5578 142.093 33.5139 141.852 34.4624 141.611C35.502 141.35 36.5339 141.089 37.5735 140.828C39.9485 140.246 42.3388 139.663 44.729 139.101C45.8444 138.84 46.9599 138.579 48.0753 138.318C49.8281 137.909 51.581 137.514 53.3338 137.119C53.8194 137.012 54.305 136.905 54.7907 136.798C62.4166 135.111 70.0805 133.545 77.6837 132.125C78.4653 131.978 79.2468 131.838 80.0208 131.697C83.2153 131.108 86.3922 130.55 89.5514 130.023L91.8278 129.642H91.8505C92.5941 129.515 93.3378 129.394 94.0814 129.274C96.1605 128.939 98.2523 128.613 100.357 128.296C101.563 128.109 102.777 127.928 103.991 127.754C104.113 127.734 104.234 127.714 104.356 127.7C106.45 127.393 108.549 127.096 110.654 126.81C112.08 126.616 113.514 126.422 114.948 126.241C116.17 126.08 117.392 125.926 118.613 125.772C130.193 124.34 141.886 123.195 153.374 122.392C154.368 122.318 155.362 122.251 156.356 122.184C160.211 121.93 164.096 121.702 167.989 121.515C172.799 121.287 177.625 121.106 182.429 120.979C193.962 120.665 205.655 120.665 217.182 120.979C221.992 121.106 226.818 121.287 231.629 121.515C235.522 121.702 239.407 121.93 243.262 122.184C244.256 122.251 245.25 122.318 246.244 122.392C257.724 123.195 269.418 124.333 281.012 125.772C281.566 125.839 282.112 125.913 282.666 125.98C282.863 126.007 283.053 126.027 283.25 126.054C284.093 126.161 284.935 126.275 285.777 126.382C288.941 126.797 292.103 127.236 295.262 127.7C296.074 127.814 296.886 127.935 297.69 128.055C299.428 128.316 301.158 128.582 302.881 128.852C303.882 129.013 304.876 129.173 305.87 129.334C306.5 129.434 307.138 129.535 307.767 129.642C308.534 129.769 309.3 129.896 310.059 130.023C311.311 130.231 312.563 130.445 313.823 130.666C314.612 130.807 315.408 130.941 316.205 131.088C324.696 132.594 333.271 134.288 341.807 136.135C342.695 136.33 343.583 136.524 344.47 136.718C344.592 136.745 344.706 136.771 344.827 136.798C345.745 136.999 346.663 137.207 347.582 137.414C348.894 137.709 350.21 138.01 351.527 138.318C352.643 138.572 353.758 138.833 354.874 139.101C358.319 139.911 361.764 140.755 365.186 141.618C367.272 142.147 369.349 142.683 371.416 143.225H371.431C372.254 143.44 373.097 143.592 373.95 143.68C374.554 143.747 375.162 143.78 375.771 143.78C379.839 143.773 383.737 142.341 386.608 139.799C389.479 137.257 391.089 133.813 391.084 130.224V106.707C391.076 104.089 390.212 101.528 388.596 99.3325C386.979 97.1368 384.679 95.3995 381.97 94.3288Z" fill="#FF7262"/>
<path d="M54.0776 81.8438C53.7801 81.6618 53.438 81.5445 53.0793 81.5015C52.7206 81.4584 52.3555 81.4909 52.0137 81.5961C51.9927 81.5974 51.9721 81.6019 51.953 81.6095C49.6538 82.366 47.342 83.1425 45.0175 83.9391C44.1753 84.2337 43.3254 84.5283 42.4755 84.8228C41.656 85.1107 40.8289 85.3985 40.0094 85.6931C39.2886 85.9475 38.5753 86.2019 37.8545 86.4629C37.2778 86.6705 36.7086 86.878 36.132 87.0855C34.1591 87.8085 32.1887 88.5404 30.2209 89.2813C29.0296 89.7365 27.8307 90.1917 26.6394 90.6536C26.2243 90.8132 25.8711 91.0762 25.623 91.4103C25.375 91.7445 25.243 92.1353 25.2432 92.5347V141.25C25.2417 141.571 25.3261 141.889 25.4896 142.176C25.6531 142.463 25.891 142.712 26.1841 142.903C26.3702 143.024 26.5745 143.121 26.7911 143.191C27.2488 143.333 27.7459 143.343 28.2101 143.218L31.6019 142.334C32.5504 142.093 33.4989 141.852 34.4474 141.611C35.487 141.35 36.5265 141.089 37.5737 140.828C39.9487 140.246 42.339 139.663 44.7292 139.101C45.8447 138.833 46.9601 138.572 48.0755 138.318C49.8284 137.909 51.5812 137.514 53.334 137.119C53.7667 137.022 54.1589 136.818 54.4646 136.53L54.4722 136.524C54.8619 136.147 55.0783 135.655 55.0793 135.145V83.5308C55.0795 83.1991 54.9885 82.8722 54.814 82.5784C54.6396 82.2846 54.3869 82.0325 54.0776 81.8438Z" fill="#3F3D56"/>
<path d="M118.075 65.63C117.816 65.4416 117.513 65.3061 117.187 65.2332C116.862 65.1603 116.522 65.1518 116.193 65.2082C116.178 65.2082 116.163 65.2149 116.147 65.2149C116.034 65.235 115.912 65.2551 115.798 65.2819C115.009 65.4224 114.212 65.5697 113.423 65.7237C112.551 65.8844 111.686 66.0517 110.813 66.2191C110.085 66.3596 109.356 66.5069 108.628 66.6542C106.913 66.9956 105.19 67.3437 103.475 67.7119C99.9774 68.4483 96.4894 69.2271 93.0116 70.0483C92.2831 70.2156 91.5471 70.3897 90.8186 70.5637C90.7544 70.5785 90.691 70.5964 90.6289 70.6173C90.6231 70.6178 90.6177 70.6202 90.6138 70.624C90.1711 70.7716 89.7897 71.0344 89.5201 71.3775C89.2505 71.7205 89.1053 72.1278 89.1038 72.5453V127.634C89.103 127.934 89.1774 128.231 89.3217 128.502C89.466 128.774 89.6766 129.015 89.9385 129.207C90.118 129.339 90.3204 129.445 90.5379 129.521C90.8172 129.622 91.1162 129.675 91.4181 129.675C91.5555 129.674 91.6926 129.663 91.8279 129.642H91.8506C92.5942 129.515 93.3379 129.394 94.0815 129.274C96.1606 128.939 98.2524 128.613 100.357 128.296C101.563 128.109 102.777 127.928 103.991 127.754C104.113 127.734 104.234 127.714 104.356 127.7C106.45 127.393 108.549 127.096 110.654 126.81C112.08 126.616 113.514 126.422 114.949 126.241C115.616 126.147 116.284 126.067 116.952 125.98C117.394 125.926 117.808 125.758 118.143 125.498C118.392 125.306 118.592 125.07 118.73 124.804C118.867 124.539 118.939 124.25 118.94 123.958V67.2232C118.94 66.9175 118.862 66.6155 118.713 66.3398C118.563 66.064 118.345 65.8214 118.075 65.63Z" fill="#3F3D56"/>
<path d="M182.08 58.6544C181.649 58.2935 181.08 58.0902 180.486 58.0854H180.372C179.94 58.1054 179.5 58.1188 179.067 58.1389C178.9 58.1456 178.726 58.1523 178.559 58.159C177.413 58.2126 176.267 58.2661 175.121 58.3264C173.9 58.3866 172.686 58.4536 171.472 58.5272C170.705 58.5741 169.946 58.6209 169.188 58.6678C168.687 58.7012 168.186 58.7347 167.678 58.7682C164.506 58.9824 161.334 59.2301 158.185 59.5113C157.13 59.605 156.083 59.6987 155.036 59.7991C154.466 59.8533 153.938 60.092 153.556 60.4691C153.173 60.8462 152.962 61.3349 152.964 61.8409V120.209C152.964 120.49 153.03 120.768 153.158 121.025C153.286 121.282 153.473 121.513 153.708 121.702C153.849 121.82 154.008 121.921 154.178 122.004C154.519 122.166 154.899 122.251 155.286 122.251C155.339 122.251 155.4 122.245 155.461 122.245C155.757 122.224 156.06 122.204 156.356 122.184C160.211 121.93 164.096 121.702 167.989 121.515C172.185 121.307 176.381 121.147 180.554 121.026C181.006 121.02 181.445 120.894 181.814 120.665C182.12 120.476 182.37 120.224 182.541 119.932C182.713 119.639 182.802 119.314 182.8 118.984V60.1405C182.802 59.8625 182.738 59.5872 182.614 59.3316C182.49 59.076 182.308 58.8455 182.08 58.6544Z" fill="#3F3D56"/>
<path d="M244.612 60.087H244.597C244.498 60.0736 244.392 60.0669 244.294 60.0602C243.338 59.9598 242.381 59.8661 241.425 59.7791C240.166 59.6586 238.914 59.5448 237.654 59.4376C234.672 59.1766 231.695 58.9489 228.723 58.7548C227.972 58.7013 227.228 58.6544 226.485 58.6142C225.627 58.554 224.77 58.5071 223.92 58.4603C223.04 58.4067 222.159 58.3598 221.279 58.3197C220.945 58.2996 220.619 58.2862 220.293 58.2728C219.944 58.2527 219.602 58.2326 219.261 58.2193C219.193 58.2137 219.124 58.2115 219.056 58.2126C218.491 58.2274 217.952 58.428 217.546 58.7749C217.315 58.9664 217.131 59.1978 217.006 59.4546C216.881 59.7114 216.816 59.9882 216.817 60.2677V118.984C216.815 119.315 216.905 119.64 217.078 119.933C217.252 120.226 217.503 120.477 217.811 120.665C218.178 120.894 218.614 121.02 219.063 121.026C223.237 121.147 227.433 121.307 231.629 121.515C235.522 121.702 239.407 121.93 243.262 122.184C243.558 122.204 243.861 122.224 244.157 122.245C244.218 122.245 244.271 122.251 244.332 122.251C244.718 122.251 245.099 122.166 245.439 122.004C245.61 121.921 245.768 121.82 245.91 121.702C246.143 121.512 246.33 121.281 246.458 121.024C246.586 120.767 246.652 120.49 246.654 120.209V62.1221C246.652 61.622 246.443 61.1396 246.068 60.7651C245.692 60.3906 245.175 60.1495 244.612 60.087Z" fill="#3F3D56"/>
<path d="M308.982 71.1127C308.922 71.0918 308.861 71.074 308.799 71.0591C308.139 70.8985 307.479 70.7445 306.819 70.5905C305.544 70.2893 304.264 69.9947 302.979 69.7068C301.773 69.4257 300.559 69.1579 299.345 68.8901C298.275 68.6558 297.205 68.4215 296.127 68.1939C295.073 67.9663 294.018 67.7454 292.956 67.5312C289.791 66.8751 286.632 66.2547 283.478 65.6701C283.456 65.6646 283.433 65.6623 283.41 65.6634C283.083 65.6094 282.746 65.6192 282.424 65.6921C282.101 65.7649 281.801 65.8991 281.543 66.0852C281.273 66.2767 281.055 66.5192 280.905 66.795C280.756 67.0708 280.678 67.3727 280.678 67.6784V123.958C280.679 124.251 280.751 124.54 280.89 124.806C281.029 125.071 281.231 125.307 281.483 125.498C281.815 125.758 282.226 125.926 282.666 125.98C282.864 126.007 283.053 126.027 283.251 126.054C284.093 126.161 284.935 126.268 285.777 126.382C288.942 126.797 292.103 127.236 295.262 127.7C296.074 127.814 296.886 127.935 297.691 128.055C299.428 128.316 301.158 128.582 302.881 128.852C303.882 129.013 304.876 129.173 305.87 129.334C306.5 129.434 307.138 129.535 307.767 129.642C307.91 129.663 308.055 129.674 308.2 129.675C308.502 129.675 308.801 129.623 309.08 129.521C309.299 129.447 309.501 129.34 309.68 129.207C309.942 129.015 310.152 128.774 310.296 128.502C310.441 128.23 310.515 127.934 310.514 127.633V73.0407C310.513 72.6195 310.366 72.2087 310.092 71.8639C309.818 71.519 309.43 71.2568 308.982 71.1127Z" fill="#3F3D56"/>
<path d="M373.001 90.8678L372.956 90.8478C370.687 89.9909 368.413 89.1518 366.134 88.3307C364.541 87.7549 362.955 87.1859 361.361 86.6303C360.739 86.4027 360.117 86.1885 359.487 85.9742C358.478 85.6194 357.461 85.2713 356.452 84.9232C355.617 84.6354 354.775 84.3542 353.94 84.073C352.976 83.745 352.013 83.4304 351.057 83.109C349.918 82.7342 348.783 82.3637 347.65 81.9978C347.638 81.9924 347.625 81.99 347.612 81.9911C347.268 81.8818 346.899 81.8478 346.537 81.8921C346.174 81.9365 345.83 82.0577 345.533 82.2455C345.226 82.4342 344.975 82.6855 344.802 82.9781C344.629 83.2706 344.539 83.5957 344.539 83.9257V135.145C344.539 135.57 344.69 135.984 344.971 136.33C345.025 136.397 345.083 136.462 345.146 136.524L345.153 136.53C345.458 136.819 345.85 137.024 346.284 137.119C346.716 137.213 347.149 137.314 347.581 137.414C348.894 137.709 350.209 138.01 351.527 138.318C352.643 138.572 353.758 138.833 354.873 139.101C358.318 139.911 361.763 140.755 365.186 141.618C367.272 142.147 369.349 142.683 371.415 143.225H371.43C371.64 143.278 371.857 143.305 372.075 143.305C372.331 143.304 372.585 143.266 372.827 143.191C373.045 143.123 373.249 143.026 373.434 142.903C373.725 142.711 373.96 142.461 374.123 142.174C374.285 141.887 374.368 141.571 374.367 141.25V92.7356C374.368 92.3412 374.24 91.955 373.997 91.6235C373.755 91.2921 373.409 91.0297 373.001 90.8678Z" fill="#3F3D56"/>
<path d="M31.6604 142.374C41.5417 148.248 51.8591 153.53 62.2567 158.654C73.3798 164.136 84.6191 169.432 95.7442 174.911C106.937 180.423 118.03 186.112 128.73 192.344C139.136 198.286 148.974 204.967 158.146 212.322C166.833 219.415 174.701 227.343 180.886 236.27C181.624 237.335 182.336 238.412 183.025 239.502C183.739 240.631 185.706 239.619 184.99 238.489C179.099 229.388 171.765 221.076 163.21 213.806C154.264 206.206 144.579 199.314 134.265 193.21C123.635 186.791 112.552 180.973 101.342 175.381C90.165 169.806 78.8428 164.462 67.6068 158.98C57.03 153.82 46.5061 148.546 36.3749 142.724C35.1802 142.038 33.9917 141.343 32.8093 140.64C31.5911 139.916 30.4505 141.655 31.6604 142.374Z" fill="#3F3D56"/>
<path d="M70.0672 118.807C74.8015 128.219 80.6182 137.178 87.4258 145.543C94.3927 154.109 101.845 162.36 109.753 170.265C117.664 178.305 125.813 186.161 133.781 194.156C141.659 202.061 149.383 210.106 156.436 218.601C163.436 226.87 169.515 235.716 174.589 245.015C175.203 246.167 175.797 247.328 176.37 248.498C176.951 249.68 178.913 248.659 178.335 247.484C173.601 238.072 167.784 229.113 160.977 220.748C154.01 212.182 146.558 203.931 138.649 196.026C130.738 187.986 122.59 180.13 114.622 172.134C106.744 164.23 99.0201 156.185 91.9665 147.689C84.9669 139.421 78.8878 130.575 73.8135 121.276C73.1995 120.124 72.6059 118.962 72.0328 117.793C71.4519 116.611 69.4901 117.632 70.0672 118.807Z" fill="#3F3D56"/>
<path d="M348.333 130.783C339.651 138.092 330.456 144.911 320.803 151.201C310.787 157.852 300.499 164.176 290.262 170.557C280.042 176.928 269.857 183.355 260.044 190.211C250.574 196.692 241.681 203.803 233.443 211.483C225.755 218.796 218.865 226.85 213.7 235.746C213.078 236.816 212.483 237.896 211.914 238.988C211.304 240.154 213.266 241.176 213.879 240.002C218.685 231.06 224.943 222.785 232.455 215.435C240.398 207.664 249.056 200.485 258.341 193.974C267.987 187.065 278.063 180.639 288.195 174.3C298.44 167.89 308.765 161.576 318.855 154.976C328.603 148.722 337.944 141.99 346.836 134.812C347.882 133.952 348.918 133.082 349.943 132.203C350.995 131.301 349.385 129.881 348.333 130.783Z" fill="#3F3D56"/>
<path d="M324.871 112.296C320.137 121.708 314.32 130.667 307.512 139.032C300.54 147.595 293.08 155.84 285.159 163.735C277.24 171.77 269.091 179.625 261.128 187.626C253.256 195.535 245.556 203.595 238.502 212.091C231.502 220.36 225.423 229.205 220.349 238.504C219.735 239.657 219.141 240.818 218.568 241.987C217.992 243.161 219.952 244.184 220.534 243C225.268 233.588 231.085 224.629 237.892 216.265C244.864 207.701 252.325 199.456 260.246 191.562C268.165 183.527 276.314 175.672 284.276 167.671C292.149 159.761 299.849 151.702 306.903 143.206C313.902 134.937 319.982 126.092 325.056 116.793C325.67 115.64 326.263 114.479 326.837 113.31C327.413 112.136 325.452 111.112 324.871 112.296Z" fill="#3F3D56"/>
<path d="M156.821 367.282L158.255 371.673L178.138 368.881L176.02 362.399L156.821 367.282Z" fill="#FFB6B6"/>
<path d="M151.578 368.447L155.99 381.951L156.183 381.902C157.763 381.5 159.098 380.561 159.893 379.291C160.688 378.022 160.879 376.525 160.424 375.131L161.739 372.125L158.114 368.062L157.729 366.883L151.578 368.447Z" fill="#2F2E41"/>
<path d="M242.187 388.852L247.242 387.849L245.266 370.174L237.806 371.653L242.187 388.852Z" fill="#FFB6B6"/>
<path d="M241.72 393.859L257.262 390.778L257.218 390.604C256.857 389.189 255.874 387.958 254.485 387.182C253.096 386.406 251.414 386.149 249.809 386.467L246.486 385.129L241.673 388.08L240.316 388.349L241.72 393.859Z" fill="#2F2E41"/>
<path d="M226.718 294.183L249.604 377.033L238.409 377.908L226.004 350.181L206.856 317.546L208.587 354.795L172.962 373.176L164.59 363.058L193.07 349.544L180.629 300.249L183.94 294.183L226.718 294.183Z" fill="#2F2E41"/>
<path d="M180.863 301.438C177.153 296.856 184.017 289.311 184.858 287.715C183.859 287.429 183.003 286.846 182.436 286.065C181.869 285.285 181.626 284.355 181.749 283.435L182.112 280.714L182.49 278.045L179.781 275.655L179.773 275.595L178.214 263.56L175.947 255.566C175.093 252.544 175.166 249.376 176.158 246.387C177.15 243.398 179.026 240.696 181.593 238.558L186.833 237.823L193.202 232.41H203.471L206.992 235.378C213.565 236.395 214.695 236.063 220.341 242.041L217.775 260.625L217.135 263.182L217.137 266.649L218.764 268.245C219.35 268.82 219.776 269.507 220.008 270.253C220.24 270.998 220.271 271.781 220.099 272.539L219.885 273.483C221.563 274.118 223.165 285.394 223.547 286.969L224.119 289.321C224.608 289.891 227.835 293.687 227.835 294.725C227.835 294.881 227.704 295.031 227.425 295.198C225.225 296.512 205.972 299.991 200.592 298.091C194.861 296.07 180.863 301.438 180.863 301.438Z" fill="#E6E6E6"/>
<path d="M160.285 246.296L164.8 251.168C166.499 253.001 168.593 254.521 170.96 255.638C173.328 256.755 175.922 257.448 178.594 257.678C180.25 257.814 181.916 257.54 183.404 256.885C184.893 256.23 186.144 255.221 187.016 253.972C188.186 252.272 188.58 250.243 188.119 248.296C187.658 246.349 186.376 244.629 184.533 243.484C178.939 240.015 175.888 234.641 171.49 236.384L170.544 234.334L158.145 225.495L147.983 233.188L160.285 246.296Z" fill="#E6E6E6"/>
<path d="M247.691 230.173L237.86 222.152L230.192 226.46L229.16 228.478C224.839 226.592 216.469 235.982 210.733 239.265C208.843 240.349 207.49 242.026 206.947 243.957C206.405 245.887 206.714 247.927 207.811 249.665C208.63 250.942 209.838 251.991 211.298 252.694C212.757 253.397 214.411 253.726 216.072 253.643C218.751 253.502 221.373 252.894 223.786 251.855C226.198 250.816 228.354 249.366 230.13 247.59L234.847 242.869L247.691 230.173Z" fill="#E6E6E6"/>
<path d="M197.643 229.795C203.942 229.795 209.048 225.29 209.048 219.733C209.048 214.176 203.942 209.672 197.643 209.672C191.345 209.672 186.239 214.176 186.239 219.733C186.239 225.29 191.345 229.795 197.643 229.795Z" fill="#FFB6B6"/>
<path d="M189.366 226.825C189.267 226.748 189.173 226.666 189.076 226.587C189.072 226.595 189.072 226.603 189.068 226.612L189.366 226.825Z" fill="#2F2E41"/>
<path d="M208.349 215.959C208.289 215.926 208.235 215.892 208.175 215.866C207.425 215.346 206.495 215.069 205.542 215.082C204.631 215.183 203.88 215.759 203.007 215.986C201.133 216.468 199.244 215.29 197.301 215.169H197.256C196.637 215.135 196.016 215.209 195.43 215.386C194.843 215.563 194.302 215.841 193.837 216.202C193.372 216.564 192.992 217.003 192.719 217.494C192.447 217.986 192.286 218.52 192.248 219.066C192.21 219.621 192.293 220.177 192.217 220.726C192.196 221.004 192.098 221.274 191.932 221.511C191.765 221.748 191.535 221.945 191.261 222.085C190.404 222.426 189.25 221.917 188.522 222.446C187.877 222.922 188.112 223.845 188.499 224.508C188.951 225.067 189.173 225.744 189.129 226.429C189.115 226.484 189.097 226.538 189.076 226.59C187.319 225.147 185.926 223.396 184.985 221.448C184.044 219.5 183.576 217.4 183.612 215.283C183.582 214.35 183.8 213.424 184.25 212.579C184.476 212.157 184.816 211.792 185.241 211.515C185.666 211.238 186.163 211.059 186.686 210.992C187.581 210.925 188.507 211.28 189.356 211.026C190.404 210.718 190.844 209.653 191.39 208.796C192.064 207.775 193.043 206.936 194.221 206.373C195.399 205.81 196.73 205.544 198.068 205.603C199.03 205.686 199.981 205.855 200.905 206.105L202.711 206.54C203.4 206.683 204.069 206.892 204.707 207.163C205.639 207.636 206.424 208.305 206.991 209.111C207.472 209.76 207.852 210.462 208.122 211.2C207.121 211.246 206.118 211.214 205.124 211.106C206.263 211.729 207.408 212.351 208.547 212.974C208.681 213.971 208.615 214.982 208.349 215.959Z" fill="#2F2E41"/>
<path d="M388.215 66.1836C408.93 66.1836 425.724 51.3679 425.724 33.0918C425.724 14.8157 408.93 0 388.215 0C367.499 0 350.706 14.8157 350.706 33.0918C350.706 51.3679 367.499 66.1836 388.215 66.1836Z" fill="#FF6584"/>
<path d="M472.169 17.4236C469.999 11.0103 463.868 6.82634 456.462 5.90921C456.386 5.90251 456.302 5.91587 456.227 5.90921C456.122 5.87984 456.016 5.85746 455.908 5.84226C445.417 4.71633 434.802 6.75483 425.791 11.6262C423.729 12.7631 421.573 13.7611 419.341 14.6119C412.185 17.2736 404.53 18.7356 396.767 18.9231C396.706 18.9231 396.646 18.9298 396.585 18.9298C392.783 19.1527 389.151 20.4042 386.184 22.5137C383.217 24.6232 381.06 27.4883 380.005 30.7186C379.893 31.1136 379.927 31.5297 380.102 31.9066C380.276 32.2834 380.583 32.6012 380.976 32.8139C382.109 33.661 383.449 34.2637 384.892 34.5746C388.01 35.157 391.137 35.6903 394.27 36.1745C400.394 37.1184 406.548 37.8816 412.732 38.464C416.83 38.8523 420.935 39.1558 425.047 39.3744C433.531 39.8431 442.052 39.9569 450.551 39.7226C454.755 39.6088 458.806 39.4883 462.661 37.8481C465.463 36.6282 467.857 34.7846 469.604 32.4993C471.253 30.3038 472.337 27.8165 472.78 25.2121C473.223 22.6077 473.014 19.9493 472.169 17.4236Z" fill="#F2F2F2"/>
<path d="M325.22 263.945C323.657 259.326 319.24 256.307 313.898 255.644C313.838 255.637 313.785 255.651 313.724 255.644C313.649 255.624 313.573 255.609 313.496 255.597C305.931 254.782 298.276 256.252 291.779 259.768C285.519 263.215 278.227 264.775 270.852 265.029C270.808 265.028 270.765 265.031 270.723 265.036C267.983 265.197 265.365 266.099 263.227 267.619C261.089 269.139 259.533 271.204 258.772 273.531C258.69 273.816 258.714 274.117 258.839 274.389C258.965 274.661 259.186 274.891 259.47 275.044C260.284 275.656 261.252 276.09 262.292 276.309C264.538 276.731 266.8 277.113 269.061 277.468C273.469 278.144 277.916 278.693 282.37 279.114C291.423 279.973 300.533 280.277 309.634 280.025C312.662 279.944 315.583 279.857 318.36 278.673C320.383 277.794 322.112 276.465 323.376 274.817C324.563 273.233 325.343 271.439 325.662 269.561C325.98 267.683 325.829 265.766 325.22 263.945Z" fill="#F2F2F2"/>
<path d="M85.4387 209.051C83.8756 204.432 79.4594 201.412 74.1174 200.75C74.0567 200.743 74.0036 200.756 73.9429 200.75C73.8681 200.73 73.7921 200.715 73.7152 200.703C66.15 199.887 58.4949 201.358 51.9984 204.873C45.7383 208.321 38.4462 209.881 31.0706 210.135C31.0275 210.134 30.9844 210.137 30.9416 210.142C28.2016 210.303 25.5844 211.205 23.446 212.725C21.3076 214.245 19.7519 216.309 18.9905 218.637C18.9089 218.922 18.9326 219.223 19.0582 219.495C19.1838 219.767 19.4046 219.997 19.6886 220.15C20.5034 220.762 21.4706 221.196 22.5114 221.415C24.7574 221.837 27.0186 222.219 29.2799 222.573C33.6885 223.25 38.1351 223.799 42.5892 224.22C51.6424 225.079 60.7521 225.383 69.8529 225.131C72.8806 225.05 75.8019 224.963 78.5792 223.778C80.6025 222.9 82.3312 221.571 83.5948 219.922C84.782 218.339 85.5622 216.545 85.8807 214.667C86.1992 212.789 86.0484 210.872 85.4387 209.051Z" fill="#F2F2F2"/>
<path d="M148.364 495.388C150.928 497.872 153.417 500.409 155.83 503C119.953 497.338 85.6399 485.657 54.7505 468.591C54.1055 468.236 53.4681 467.881 52.8307 467.52C35.3032 457.671 19.0358 446.176 4.31299 433.238C6.89291 431.102 8.48639 429.83 8.48639 429.83C44.4915 395.716 48.5283 383.706 84.5334 349.591C96.5073 392.395 146.854 422.132 173.26 459.56C165.56 464.3 157.137 468.053 148.242 470.706C148.182 470.766 148.121 470.833 148.06 470.894C144.709 474.304 142.889 478.679 142.945 483.192C143.001 487.705 144.928 492.044 148.364 495.388Z" fill="#F2F2F2"/>
<path d="M458.698 374.796C437.136 409.674 406.61 439.61 369.57 462.204C368.78 462.686 367.991 463.168 367.194 463.644C340.958 479.314 311.947 491.022 281.351 498.287C279.882 497.289 278.233 496.517 276.472 496.004V495.991C278.445 492.737 280.418 489.484 282.391 486.23C275.577 492.363 263.694 493.414 255.636 488.607C256.961 485.967 258.852 483.578 261.205 481.571C259.232 482.368 256.167 481.216 255.317 479.208C254.247 476.698 255.461 473.919 256.736 471.483C270.796 444.652 316.863 401.212 317.584 400.535C317.091 400.803 296.057 412.458 283.855 411.595C283.233 408.301 267.048 404.278 265.242 402.604C272.595 388.017 306.695 360.878 306.695 360.878C342.7 326.763 346.737 314.753 382.742 280.639C392.986 317.257 431.305 344.309 458.698 374.796Z" fill="#F2F2F2"/>
<g opacity="0.2">
<path d="M0 132.583C0.224013 132.322 0.458784 132.07 0.687107 131.812L0.699519 131.709L0 132.583Z" fill="black"/>
<path d="M389.541 135.344C388.282 137.984 386.086 140.192 383.282 141.636C380.478 143.08 377.218 143.682 373.993 143.35C373.156 143.261 372.329 143.111 371.519 142.902C362.649 140.572 353.781 138.43 344.916 136.475C333.321 133.904 321.727 131.644 310.133 129.694C300.443 128.06 290.753 126.643 281.063 125.443C269.461 124.003 257.864 122.874 246.272 122.055C236.582 121.366 226.89 120.895 217.195 120.643C205.6 120.328 194.008 120.328 182.419 120.643C172.729 120.897 163.036 121.368 153.342 122.055C141.747 122.872 130.153 124.001 118.558 125.443C108.868 126.648 99.1758 128.065 89.4808 129.694C77.8864 131.642 66.2919 133.902 54.6974 136.475C45.827 138.436 36.9617 140.579 28.1015 142.902C27.2924 143.111 26.465 143.261 25.6278 143.35C23.528 143.567 21.4001 143.389 19.3839 142.828C17.3677 142.267 15.5089 141.336 13.9298 140.096C12.3508 138.856 11.0872 137.335 10.2222 135.633C9.35727 133.932 8.91052 132.087 8.91138 130.222V124.037C26.0223 110.387 50.2281 104.061 73.5688 101.905C101.326 99.341 129.53 101.53 157.136 97.895C179.642 94.9294 202.003 88.0944 224.6 90.471C244.291 92.5328 262.237 101.436 281.655 104.998C306.012 109.463 331.728 105.359 355.865 110.668C365.328 112.743 374.6 116.392 381.361 122.584C385.278 126.151 388.095 130.544 389.541 135.344Z" fill="black"/>
</g>
<path d="M198.901 274.945C206.953 274.945 213.48 269.187 213.48 262.084C213.48 254.98 206.953 249.222 198.901 249.222C190.85 249.222 184.323 254.98 184.323 262.084C184.323 269.187 190.85 274.945 198.901 274.945Z" fill="#FF7262"/>
<path d="M196.912 268.778C196.661 268.778 196.412 268.726 196.187 268.626C195.962 268.527 195.766 268.383 195.615 268.205L191.638 263.527C191.51 263.376 191.416 263.205 191.363 263.023C191.31 262.841 191.298 262.651 191.328 262.465C191.358 262.279 191.429 262.099 191.537 261.938C191.646 261.776 191.79 261.634 191.96 261.521C192.131 261.408 192.325 261.326 192.532 261.28C192.738 261.233 192.953 261.223 193.164 261.25C193.375 261.277 193.578 261.34 193.762 261.436C193.945 261.532 194.105 261.659 194.233 261.81L196.835 264.871L203.518 256.027C203.756 255.711 204.127 255.492 204.549 255.417C204.971 255.343 205.409 255.419 205.767 255.63C206.124 255.84 206.373 256.168 206.457 256.54C206.542 256.912 206.455 257.298 206.216 257.614L198.262 268.14C198.118 268.331 197.924 268.488 197.697 268.599C197.47 268.71 197.217 268.771 196.957 268.777L196.912 268.778Z" fill="white"/>
<path d="M378.151 337.16C377.461 347.168 376.773 357.178 376.088 367.191C374.873 384.877 373.659 402.566 372.445 420.257C371.489 434.242 370.531 448.224 369.569 462.204C368.78 462.686 367.991 463.168 367.194 463.644C367.657 456.969 368.115 450.295 368.568 443.621C369.782 425.927 370.996 408.238 372.21 390.554C373.432 372.754 374.653 354.956 375.875 337.16C375.958 335.868 378.235 335.868 378.151 337.16Z" fill="white"/>
<path d="M303.451 386.466L343.567 356.624L354.823 348.252C355.945 347.418 354.327 346.003 353.213 346.832L313.097 376.673L301.841 385.046C300.719 385.88 302.337 387.294 303.451 386.466Z" fill="white"/>
<path d="M308.573 442.594L337.826 419.822C338.926 418.965 337.311 417.549 336.216 418.402L306.963 441.174C305.863 442.03 307.478 443.446 308.573 442.594Z" fill="white"/>
<path d="M27.058 432.552L56.3107 409.781C57.4114 408.924 55.7963 407.508 54.701 408.36L25.4484 431.132C24.3477 431.989 25.9627 433.405 27.058 432.552Z" fill="white"/>
<path d="M404.124 366.893C407.965 366.748 411.782 367.478 415.21 369.012C418.638 370.545 421.562 372.831 423.699 375.649C424.499 376.726 426.471 375.721 425.665 374.636C423.324 371.517 420.113 368.982 416.34 367.274C412.568 365.566 408.361 364.743 404.124 364.884C402.666 364.945 402.657 366.953 404.124 366.893Z" fill="white"/>
<path d="M85.3433 404.564C104.809 412.738 120.398 426.687 129.386 443.974C129.997 445.147 131.959 444.128 131.352 442.96C124.205 429.343 113.029 417.676 99.0015 409.189C95.0276 406.783 90.8449 404.656 86.4923 402.83C85.1763 402.278 84.0198 404.009 85.3433 404.564Z" fill="white"/>
<path d="M83.8809 390.601C82.3178 398.266 80.4107 405.869 78.1596 413.409C74.1818 426.725 69.1461 439.778 63.0898 452.471C60.4947 457.92 57.715 463.293 54.7506 468.591C54.1056 468.236 53.4682 467.881 52.8308 467.52C59.6136 455.359 65.4299 442.797 70.2377 429.924C75.1087 416.894 78.9324 403.577 81.6804 390.072C81.9384 388.8 84.139 389.342 83.8809 390.601Z" fill="white"/>
<path d="M105.211 299.469C111.315 299.469 116.263 295.103 116.263 289.719C116.263 284.334 111.315 279.969 105.211 279.969C99.1076 279.969 94.1597 284.334 94.1597 289.719C94.1597 295.103 99.1076 299.469 105.211 299.469Z" fill="#E6E6E6"/>
<path d="M103.703 294.793C103.513 294.793 103.324 294.754 103.154 294.678C102.983 294.603 102.835 294.494 102.72 294.359L99.7051 290.812C99.5095 290.582 99.4255 290.293 99.4716 290.008C99.5177 289.724 99.6902 289.467 99.951 289.294C100.212 289.121 100.54 289.047 100.862 289.088C101.185 289.129 101.476 289.281 101.672 289.511L103.645 291.831L108.711 285.127C108.8 285.008 108.915 284.905 109.049 284.825C109.183 284.745 109.334 284.69 109.493 284.661C109.652 284.633 109.815 284.632 109.974 284.66C110.133 284.688 110.284 284.743 110.419 284.822C110.553 284.901 110.669 285.003 110.759 285.122C110.849 285.241 110.911 285.374 110.943 285.514C110.974 285.654 110.974 285.798 110.942 285.938C110.91 286.079 110.847 286.212 110.756 286.33L104.726 294.31C104.617 294.454 104.471 294.573 104.299 294.657C104.127 294.741 103.934 294.788 103.738 294.793L103.703 294.793Z" fill="white"/>
<path d="M126.494 299.469C132.598 299.469 137.546 295.103 137.546 289.719C137.546 284.334 132.598 279.969 126.494 279.969C120.391 279.969 115.443 284.334 115.443 289.719C115.443 295.103 120.391 299.469 126.494 299.469Z" fill="#E6E6E6"/>
<path d="M124.987 294.793C124.796 294.793 124.608 294.754 124.437 294.678C124.266 294.603 124.118 294.494 124.003 294.359L120.988 290.812C120.793 290.582 120.709 290.293 120.755 290.008C120.801 289.724 120.973 289.467 121.234 289.294C121.495 289.121 121.823 289.047 122.146 289.088C122.468 289.129 122.76 289.281 122.955 289.511L124.928 291.831L129.994 285.127C130.083 285.008 130.198 284.905 130.332 284.825C130.467 284.745 130.617 284.69 130.776 284.661C130.935 284.633 131.098 284.632 131.257 284.66C131.416 284.688 131.567 284.743 131.702 284.822C131.837 284.901 131.952 285.003 132.042 285.122C132.132 285.241 132.195 285.374 132.226 285.514C132.257 285.654 132.257 285.798 132.225 285.938C132.193 286.079 132.13 286.212 132.04 286.33L126.01 294.31C125.901 294.454 125.754 294.573 125.582 294.657C125.41 294.741 125.217 294.788 125.021 294.793L124.987 294.793Z" fill="white"/>
<path d="M115.565 283.737C121.669 283.737 126.617 279.371 126.617 273.987C126.617 268.602 121.669 264.237 115.565 264.237C109.462 264.237 104.514 268.602 104.514 273.987C104.514 279.371 109.462 283.737 115.565 283.737Z" fill="#E6E6E6"/>
<path d="M114.057 279.061C113.867 279.061 113.678 279.022 113.508 278.947C113.337 278.871 113.189 278.762 113.074 278.627L110.059 275.081C109.863 274.85 109.779 274.561 109.826 274.276C109.872 273.992 110.044 273.735 110.305 273.562C110.566 273.39 110.894 273.316 111.216 273.356C111.539 273.397 111.83 273.549 112.026 273.779L113.999 276.099L119.065 269.395C119.246 269.157 119.527 268.992 119.846 268.937C120.165 268.881 120.496 268.939 120.766 269.099C121.037 269.258 121.225 269.505 121.289 269.786C121.354 270.067 121.289 270.359 121.11 270.598L115.08 278.578C114.971 278.722 114.825 278.842 114.653 278.926C114.481 279.01 114.288 279.056 114.092 279.061L114.057 279.061Z" fill="white"/>
<path d="M147.522 274.654L145.89 274.798L137.837 293.575H94.12L86.0669 274.798L84.4349 274.654C83.914 274.608 83.3879 274.659 82.8905 274.803C82.3932 274.948 81.9357 275.182 81.5475 275.492C81.1594 275.802 80.8491 276.181 80.6367 276.603C80.4244 277.025 80.3147 277.482 80.3147 277.944V320.505C80.3147 322.167 80.6856 323.812 81.4064 325.347C82.1271 326.882 83.1836 328.277 84.5154 329.452C85.8471 330.627 87.4282 331.559 89.1682 332.195C90.9083 332.831 92.7733 333.158 94.6567 333.158H137.3C139.183 333.158 141.048 332.831 142.788 332.195C144.528 331.559 146.11 330.627 147.441 329.452C148.773 328.277 149.83 326.882 150.55 325.347C151.271 323.812 151.642 322.167 151.642 320.505V277.944C151.642 277.482 151.532 277.025 151.32 276.603C151.108 276.181 150.797 275.802 150.409 275.492C150.021 275.182 149.563 274.948 149.066 274.803C148.569 274.659 148.043 274.608 147.522 274.654Z" fill="#F2F2F2"/>
<path d="M209.142 232.152C208.603 230.753 206.522 230.488 204.846 230.492C201.11 230.502 197.377 230.642 193.65 230.913L194.023 230.532C193.033 230.163 191.943 230.055 190.884 230.221C189.856 230.479 189.011 231.52 189.476 232.369C189.825 233.007 190.8 233.412 190.73 234.118C190.611 235.312 187.991 234.915 187.584 236.059C187.528 236.286 187.553 236.523 187.655 236.737C187.758 236.951 187.934 237.131 188.157 237.254C188.611 237.491 189.12 237.633 189.646 237.67C195.191 238.38 200.851 237.737 206.011 235.809C206.912 235.52 207.735 235.066 208.426 234.478C208.766 234.181 209.012 233.809 209.138 233.4C209.264 232.992 209.265 232.561 209.142 232.152Z" fill="#E6E6E6"/>
</g>
<defs>
<clipPath id="clip0_94_907">
<rect width="473" height="503" fill="white"/>
</clipPath>
</defs>
</svg>
